<svg width="216" height="43" viewBox="0 0 216 43" fill="none" xmlns="http://www.w3.org/2000/svg"><path d="M33.496 33.84h-17.76l-3.3 8.16H.316l18.54-42h11.7l18.6 42h-12.36l-3.3-8.16zm-3.48-8.76l-5.4-13.44-5.4 13.44h10.8zM52.524 0h19.86c4.6 0 8.68.86 12.24 2.58 3.56 1.72 6.32 4.16 8.28 7.32 1.96 3.16 2.94 6.86 2.94 11.1 0 4.24-.98 7.94-2.94 11.1-1.96 3.16-4.72 5.6-8.28 7.32-3.56 1.72-7.64 2.58-12.24 2.58h-19.86V0zm19.38 32.52c3.6 0 6.48-1.02 8.64-3.06 2.2-2.04 3.3-4.86 3.3-8.46 0-3.6-1.1-6.42-3.3-8.46-2.16-2.04-5.04-3.06-8.64-3.06h-7.5v23.04h7.5zm49.571 10.32c-6.24 0-11.1-1.7-14.58-5.1-3.44-3.4-5.16-8.22-5.16-14.46V0h11.88v22.92c0 6.72 2.66 10.08 7.98 10.08 5.28 0 7.92-3.36 7.92-10.08V0h11.7v23.28c0 6.24-1.74 11.06-5.22 14.46-3.44 3.4-8.28 5.1-14.52 5.1zM149.263 0h11.88v32.58h20.04V42h-31.92V0zm41.635 9.42h-12.9V0h37.62v9.42h-12.84V42h-11.88V9.42z" fill="#fff"/></svg>