<svg width="121" height="21" viewBox="0 0 121 21" fill="none" xmlns="http://www.w3.org/2000/svg"><path d="M8.271 17.477c-2.25 0-4.07-1.88-4.07-4.218 0-2.294 1.82-4.203 4.07-4.203 1.495 0 2.99.697 3.627 1.97a.776.776 0 01.102.354v3.729a.77.77 0 01-.074.28c-.695 1.273-2.116 2.088-3.655 2.088zm7.385 3.21V5.89H12v1.242c-1.021-.991-2.412-1.537-4.128-1.537-4.188 0-7.37 3.403-7.37 7.664 0 4.278 3.182 7.726 7.37 7.726 1.716 0 3.107-.578 4.128-1.57v1.273h3.656zm15.878 0v-8.004c0-3.938-3.062-7.088-6.97-7.088-3.92 0-6.97 3.15-6.97 7.088v8.005h3.655v-8.005c0-1.939 1.363-3.42 3.316-3.42 1.938 0 3.315 1.481 3.315 3.42v8.005h3.654zm9.294-3.21c-2.25 0-4.07-1.88-4.07-4.218 0-2.294 1.82-4.203 4.07-4.203 1.495 0 2.916.741 3.626 1.97a.775.775 0 01.102.354v3.745a.73.73 0 01-.072.265c-.696 1.272-2.117 2.087-3.656 2.087zm7.385 3.21V1.452h-3.657v5.68c-1.019-.99-2.412-1.582-4.128-1.582-4.188 0-7.369 3.45-7.369 7.71 0 4.278 3.181 7.726 7.37 7.726 1.715 0 3.108-.578 4.127-1.57v1.273h3.657zm5.593 0v-7.902c0-2.338 1.228-3.58 3.566-3.58v-3.61c-4.706 0-7.22 2.5-7.22 7.19v7.903h3.654zM65.363 17.3a4.032 4.032 0 01-4.023-4.041 4.027 4.027 0 014.023-4.024 4.023 4.023 0 014.042 4.024 4.028 4.028 0 01-4.042 4.041zm0 3.685a7.723 7.723 0 007.74-7.726c0-4.26-3.461-7.664-7.74-7.664-4.26 0-7.724 3.403-7.724 7.664a7.722 7.722 0 007.724 7.726zm11.232-16.22a2.13 2.13 0 002.118-2.13A2.12 2.12 0 0076.595.503a2.119 2.119 0 00-2.115 2.132 2.13 2.13 0 002.115 2.13zm1.82 1.125H74.76v14.798h3.656V5.89zm9.428 11.587c-2.25 0-4.07-1.88-4.07-4.218 0-2.294 1.82-4.203 4.07-4.203 1.496 0 2.914.741 3.625 1.97a.752.752 0 01.104.354v3.76a.615.615 0 01-.074.25c-.695 1.272-2.115 2.087-3.654 2.087zm7.384 3.21V1.452h-3.655v5.68c-1.021-.99-2.412-1.536-4.128-1.536-4.188 0-7.37 3.403-7.37 7.664 0 4.278 3.182 7.74 7.37 7.74 1.716 0 3.107-.592 4.128-1.583v1.272h3.655zm19.266.002l6.008-14.815h-3.018l-4.915 12.846h1.022l-4.927-12.83h-3.108l6.008 14.799h2.93zm-9.663.176l.014-2.633h-.325c-2.145 0-3.656-1.288-3.656-3.463V8.332h3.863V5.89h-3.863V1.88h-2.677v12.89c0 3.833 2.486 6.096 6.333 6.096h.311z" fill="#fff"/></svg>