<svg width="131" height="33" viewBox="0 0 131 33" fill="none" xmlns="http://www.w3.org/2000/svg"><path d="M21.171 17.155c-.032-3.85 3.151-5.721 3.291-5.807-1.807-2.625-4.603-2.99-5.581-3.023-2.345-.247-4.625 1.41-5.819 1.41-1.215 0-3.065-1.377-5.044-1.345-2.549.043-4.947 1.516-6.248 3.818-2.7 4.678-.689 11.561 1.903 15.347 1.302 1.85 2.807 3.926 4.797 3.85 1.936-.075 2.667-1.236 5-1.236 2.324 0 3.001 1.236 5.023 1.193 2.087-.032 3.388-1.86 4.646-3.732 1.495-2.118 2.098-4.215 2.12-4.323-.055-.022-4.045-1.549-4.088-6.152zM17.355 5.841c1.043-1.301 1.753-3.076 1.56-4.883-1.506.065-3.399 1.044-4.485 2.324-.957 1.129-1.818 2.968-1.603 4.7 1.7.128 3.442-.861 4.528-2.14zM49.257 27.9h-2.71l-1.484-4.668h-5.162L38.49 27.9h-2.634l5.108-15.885h3.162l5.13 15.885zm-4.635-6.625l-1.344-4.14c-.14-.43-.409-1.42-.796-2.99h-.054c-.161.677-.409 1.677-.753 2.99l-1.323 4.14h4.27zm17.772.765c0 1.946-.527 3.484-1.592 4.613-.946 1.01-2.13 1.506-3.527 1.506-1.517 0-2.603-.538-3.27-1.624v6.012h-2.549V20.21a74.62 74.62 0 00-.097-3.764h2.237l.14 1.817h.043c.85-1.366 2.14-2.054 3.861-2.054 1.355 0 2.474.538 3.377 1.602.925 1.076 1.377 2.474 1.377 4.227zm-2.592.085c0-1.118-.248-2.033-.753-2.753-.548-.753-1.29-1.13-2.215-1.13-.624 0-1.194.216-1.71.624a2.88 2.88 0 00-1 1.635c-.076.312-.119.57-.119.774v1.915c0 .828.258 1.538.764 2.108.505.57 1.172.86 1.99.86.956 0 1.699-.376 2.236-1.108.538-.742.807-1.71.807-2.925zm15.748-.085c0 1.946-.526 3.484-1.591 4.613-.947 1.01-2.13 1.506-3.528 1.506-1.516 0-2.602-.538-3.27-1.624v6.012h-2.548V20.21a74.62 74.62 0 00-.097-3.764h2.237l.14 1.817h.043c.85-1.366 2.14-2.054 3.86-2.054 1.356 0 2.474.538 3.378 1.602.925 1.076 1.376 2.474 1.376 4.227zm-2.591.085c0-1.118-.248-2.033-.753-2.753-.549-.753-1.29-1.13-2.216-1.13-.623 0-1.194.216-1.71.624-.505.42-.839.958-1 1.635-.075.312-.118.57-.118.774v1.915c0 .828.258 1.538.763 2.108.506.57 1.173.86 1.99.86.957 0 1.71-.376 2.237-1.108.549-.742.807-1.71.807-2.925zm17.329 1.323c0 1.355-.473 2.452-1.409 3.302-1.032.924-2.474 1.387-4.323 1.387-1.71 0-3.076-.334-4.109-.99l.592-2.118a7.143 7.143 0 003.678.99c.957 0 1.71-.216 2.237-.646.538-.43.806-1.011.806-1.732a2.24 2.24 0 00-.656-1.624c-.44-.44-1.172-.85-2.194-1.226-2.806-1.043-4.194-2.56-4.194-4.549 0-1.301.495-2.366 1.474-3.205.978-.828 2.28-1.247 3.904-1.247 1.44 0 2.645.247 3.602.752l-.645 2.065c-.903-.484-1.914-.731-3.054-.731-.893 0-1.603.226-2.108.656-.42.398-.635.871-.635 1.441 0 .624.248 1.15.732 1.549.419.376 1.193.785 2.312 1.226 1.366.548 2.366 1.194 3.011 1.936.656.742.979 1.667.979 2.764zm8.431-5.088h-2.807v5.56c0 1.41.494 2.12 1.484 2.12a4.72 4.72 0 001.129-.119l.075 1.936c-.505.183-1.161.28-1.979.28-1.01 0-1.785-.312-2.355-.925-.57-.613-.85-1.646-.85-3.087V18.35H91.75v-1.904h1.666V14.35l2.496-.753v2.85h2.807v1.915zm12.627 3.722c0 1.763-.505 3.204-1.506 4.334-1.053 1.161-2.452 1.742-4.194 1.742-1.678 0-3.022-.56-4.022-1.667-1-1.108-1.495-2.517-1.495-4.216 0-1.774.516-3.226 1.538-4.355 1.032-1.13 2.42-1.7 4.162-1.7 1.678 0 3.033.56 4.055 1.678.978 1.075 1.462 2.474 1.462 4.184zm-2.635.053c0-1.054-.226-1.946-.677-2.7-.538-.913-1.302-1.365-2.291-1.365-1.022 0-1.807.452-2.334 1.366-.462.753-.677 1.667-.677 2.753 0 1.054.225 1.957.677 2.7.549.914 1.323 1.365 2.312 1.365.968 0 1.732-.462 2.291-1.387.463-.774.699-1.678.699-2.732zm10.915-3.451a4.712 4.712 0 00-.807-.065c-.892 0-1.591.333-2.075 1.011-.42.591-.635 1.355-.635 2.259V27.9h-2.549v-7.85c0-1.323-.021-2.528-.075-3.603h2.215l.097 2.194h.075c.269-.753.689-1.366 1.269-1.818.571-.409 1.184-.613 1.84-.613.236 0 .451.021.634.043l.011 2.43zM131 21.63c0 .452-.033.839-.097 1.15h-7.636c.032 1.13.398 2.001 1.108 2.593.645.527 1.473.796 2.495.796 1.129 0 2.162-.183 3.087-.538l.397 1.764c-1.086.473-2.366.71-3.839.71-1.775 0-3.173-.528-4.184-1.57-1.011-1.044-1.516-2.453-1.516-4.206 0-1.72.473-3.162 1.42-4.313.989-1.226 2.323-1.839 4-1.839 1.646 0 2.904.613 3.743 1.84.678.989 1.022 2.183 1.022 3.613zm-2.431-.656c.022-.753-.15-1.409-.495-1.957-.441-.71-1.118-1.065-2.021-1.065-.829 0-1.506.344-2.022 1.032-.42.549-.678 1.215-.753 1.98l5.291.01z" fill="#fff"/></svg>