<svg width="260" height="90" viewBox="0 0 260 90" fill="none" xmlns="http://www.w3.org/2000/svg"><path d="M187.468 34.363l1.748 7.366-5.625.688 3.877-8.054zM259.888 0l-8.317 59.139L0 89.999 8.316 30.86 259.888 0zM224.61 33.02l11.442-16.659-11.929 1.46-5.329 8.234-4.428-7.037-11.134 1.365 9.026 13.705-10.308 15.018-7.712-27.57-10.202 1.25-16.399 31.188 4.205-29.739-11.303 1.387-8.179 11.98-5.021-10.361-10.16 1.249-4.491 31.77 10.074-1.227 2.214-15.759 5.477 10.435.181-.02 8.686-12.171-2.214 15.748 9.408-1.154.837-.095 10.382-1.28 2.182-4.456 10.774-1.323 1.027 4.064 8.242-1.006 2.723-.338 9.195-1.122 6.261-9.61 4.831 8.245 11.124-1.366-9.482-14.806zm-108.481 9.778l.445-3.217 16.156-1.98 1.25-8.72-26.273 3.218-4.481 31.781 26.241-3.217 1.218-8.72-16.134 1.978.508-3.45 15.044-1.841 1.07-7.673-15.044 1.841zM69.209 68.05l10.213-1.25L81.678 51l9.175 14.392 9.153-1.121 4.491-31.771-10.201 1.248-2.162 15.166-8.803-13.821-9.63 1.185-4.492 31.77zm1.325-31.39l-10.287 1.26-4.492 31.78 10.287-1.259 4.492-31.781zm-43.69 31.115c-.296 2.836 2.617 5.164 6.463 4.699h.021l19.186-2.36 1.324-8.88-13.041 1.598c-1.727.212-3.284-.328-2.977-2.55l1.144-8.054c.34-2.561 2.51-3.25 4.778-3.524l12.087-1.471 1.272-8.911-21.252 2.613c-2.966.36-5.265 2.244-5.953 5.028l-3.051 21.812z" fill="#fff"/></svg>