<svg width="290" height="75" viewBox="0 0 290 75" fill="none" xmlns="http://www.w3.org/2000/svg"><path d="M277.167 15.553h-55.439a2.33 2.33 0 00-2.327 2.327v41.106a2.33 2.33 0 002.327 2.328h55.439a2.33 2.33 0 002.327-2.328V17.88a2.33 2.33 0 00-2.327-2.327z" fill="url(#paint0_linear_137_2409)"/><path d="M277.17 15.553a2.33 2.33 0 012.327 2.327v41.106a2.33 2.33 0 01-2.327 2.327h-55.44a2.33 2.33 0 01-2.327-2.327V17.88a2.33 2.33 0 012.327-2.327h55.44zm0-.87h-55.44a3.203 3.203 0 00-3.197 3.197v41.106a3.203 3.203 0 003.197 3.197h55.44a3.203 3.203 0 003.197-3.197V17.88a3.203 3.203 0 00-3.197-3.197z" fill="url(#paint1_linear_137_2409)"/><path d="M278.016 58.986c0 .37-.305.674-.674.674h-55.44a.678.678 0 01-.674-.674V17.88c0-.37.305-.674.674-.674h55.44c.369 0 .674.304.674.674v41.106z" fill="#90C" fill-opacity=".17" style="mix-blend-mode:hard-light"/><path d="M278.016 58.986c0 .37-.305.674-.674.674h-55.44a.678.678 0 01-.674-.674V17.88c0-.37.305-.674.674-.674h55.44c.369 0 .674.304.674.674v41.106z" stroke="url(#paint2_linear_137_2409)" stroke-width=".306" stroke-miterlimit="10"/><path d="M286.397 30.891h-13.594a2.534 2.534 0 00-2.544 2.545v32.602a2.534 2.534 0 002.544 2.545h13.594a2.534 2.534 0 002.545-2.545V33.436a2.548 2.548 0 00-2.545-2.545z" fill="url(#paint3_linear_137_2409)"/><path d="M286.394 30.891a2.534 2.534 0 012.545 2.545v32.602a2.534 2.534 0 01-2.545 2.545h-13.593a2.534 2.534 0 01-2.545-2.545V33.436a2.534 2.534 0 012.545-2.545h13.593zm0-.87h-13.593a3.42 3.42 0 00-3.415 3.415v32.602a3.42 3.42 0 003.415 3.415h13.593a3.42 3.42 0 003.415-3.415V33.436a3.42 3.42 0 00-3.415-3.415z" fill="url(#paint4_linear_137_2409)"/><path d="M280.501 32.457h-1.936c-.065 0-.108-.043-.108-.108 0-.066.043-.11.108-.11h1.936c.065 0 .109.044.109.11.021.043-.044.108-.109.108z" fill="#140020" stroke="url(#paint5_linear_137_2409)" stroke-width="1.23" stroke-miterlimit="10"/><path d="M286.438 32.087h-2.044c-.109 0-.196.087-.218.196v.022a1.078 1.078 0 01-1.087 1.022h-7.069a1.079 1.079 0 01-1.087-1.022v-.022c-.022-.109-.109-.196-.218-.196h-2.066a1.338 1.338 0 00-1.261 1.349v32.602c0 .696.543 1.305 1.261 1.348h13.768c.696-.065 1.261-.652 1.261-1.348V33.436c.044-.718-.522-1.305-1.24-1.349z" fill="#90C" fill-opacity=".17" style="mix-blend-mode:hard-light"/><path d="M286.438 32.087h-2.044c-.109 0-.196.087-.218.196v.022a1.078 1.078 0 01-1.087 1.022h-7.069a1.079 1.079 0 01-1.087-1.022v-.022c-.022-.109-.109-.196-.218-.196h-2.066a1.338 1.338 0 00-1.261 1.349v32.602c0 .696.543 1.305 1.261 1.348h13.768c.696-.065 1.261-.652 1.261-1.348V33.436c.044-.718-.522-1.305-1.24-1.349z" stroke="url(#paint6_linear_137_2409)" stroke-width=".306" stroke-miterlimit="10"/><path d="M153.598 73.318H131.73a.946.946 0 01-.945-.944v-3.642c0-.531.433-.945.945-.945h21.868c.532 0 .945.433.945.945v3.642a.945.945 0 01-.945.944z" fill="url(#paint7_linear_137_2409)"/><path d="M153.6 67.787c.532 0 .945.433.945.945v3.642a.945.945 0 01-.945.944h-21.868a.946.946 0 01-.945-.944v-3.642c0-.531.433-.945.945-.945H153.6zm0-.787h-21.868c-.964 0-1.732.787-1.732 1.732v3.642c0 .964.787 1.732 1.732 1.732H153.6c.965 0 1.732-.788 1.732-1.732v-3.642c0-.945-.787-1.732-1.732-1.732z" fill="url(#paint8_linear_137_2409)"/><path d="M153.342 72.374h-21.356a.345.345 0 01-.335-.335v-2.972c0-.177.158-.335.335-.335h21.356c.178 0 .335.158.335.335v2.972a.332.332 0 01-.335.335z" fill="#90C" fill-opacity=".17" style="mix-blend-mode:hard-light"/><path d="M153.342 72.374h-21.356a.345.345 0 01-.335-.335v-2.972c0-.177.158-.335.335-.335h21.356c.178 0 .335.158.335.335v2.972a.332.332 0 01-.335.335z" stroke="url(#paint9_linear_137_2409)" stroke-width=".306" stroke-miterlimit="10"/><path d="M134.099 71.153h-.906a.134.134 0 01-.137-.138v-.905c0-.079.059-.138.137-.138h.906c.079 0 .138.06.138.138v.905c.019.08-.059.138-.138.138z" stroke="url(#paint10_linear_137_2409)" stroke-width=".612" stroke-miterlimit="10"/><path d="M148.721 71.153h-.905a.135.135 0 01-.138-.138v-.905c0-.079.059-.138.138-.138h.905c.079 0 .138.06.138.138v.905c.02.08-.059.138-.138.138z" stroke="url(#paint11_linear_137_2409)" stroke-width=".612" stroke-miterlimit="10"/><path d="M150.45 71.153h-.905a.135.135 0 01-.138-.138v-.905c0-.079.059-.138.138-.138h.905c.079 0 .138.06.138.138v.905a.135.135 0 01-.138.138z" stroke="url(#paint12_linear_137_2409)" stroke-width=".612" stroke-miterlimit="10"/><path d="M152.163 71.153h-.906a.134.134 0 01-.137-.138v-.905c0-.079.059-.138.137-.138h.906c.079 0 .138.06.138.138v.905c.019.08-.059.138-.138.138z" stroke="url(#paint13_linear_137_2409)" stroke-width=".612" stroke-miterlimit="10"/><path d="M199.316 73.318H167.26c-.78 0-1.385-.433-1.385-.944v-3.642c0-.531.634-.945 1.385-.945h32.056c.779 0 1.385.433 1.385.945v3.642c0 .531-.634.944-1.385.944z" fill="url(#paint14_linear_137_2409)"/><path d="M199.312 67.787c.779 0 1.385.433 1.385.945v3.642c0 .531-.635.944-1.385.944h-32.057c-.779 0-1.385-.433-1.385-.944v-3.642c0-.531.635-.945 1.385-.945h32.057zm0-.787h-32.057c-1.414 0-2.539.787-2.539 1.732v3.642c0 .964 1.154 1.732 2.539 1.732h32.057c1.414 0 2.539-.788 2.539-1.732v-3.642c0-.945-1.154-1.732-2.539-1.732z" fill="url(#paint15_linear_137_2409)"/><path d="M198.934 72.374h-31.307c-.259 0-.49-.158-.49-.335v-2.972c0-.177.231-.335.49-.335h31.307c.26 0 .49.158.49.335v2.972c0 .197-.23.335-.49.335z" fill="#90C" fill-opacity=".17" style="mix-blend-mode:hard-light"/><path d="M198.934 72.374h-31.307c-.259 0-.49-.158-.49-.335v-2.972c0-.177.231-.335.49-.335h31.307c.26 0 .49.158.49.335v2.972c0 .197-.23.335-.49.335z" stroke="url(#paint16_linear_137_2409)" stroke-width=".306" stroke-miterlimit="10"/><path d="M170.72 71.153h-1.328c-.115 0-.202-.059-.202-.138v-.905c0-.079.087-.138.202-.138h1.328c.115 0 .202.06.202.138v.905c.029.08-.087.138-.202.138z" stroke="url(#paint17_linear_137_2409)" stroke-width=".612" stroke-miterlimit="10"/><path d="M192.154 71.153h-1.328c-.115 0-.201-.059-.201-.138v-.905c0-.079.086-.138.201-.138h1.328c.115 0 .202.06.202.138v.905c.029.08-.087.138-.202.138z" stroke="url(#paint18_linear_137_2409)" stroke-width=".612" stroke-miterlimit="10"/><path d="M194.693 71.153h-1.327c-.116 0-.202-.059-.202-.138v-.905c0-.079.086-.138.202-.138h1.327c.115 0 .202.06.202.138v.905c0 .08-.087.138-.202.138z" stroke="url(#paint19_linear_137_2409)" stroke-width=".612" stroke-miterlimit="10"/><path d="M197.206 71.153h-1.327c-.116 0-.202-.059-.202-.138v-.905c0-.079.086-.138.202-.138h1.327c.115 0 .202.06.202.138v.905c.029.08-.087.138-.202.138z" stroke="url(#paint20_linear_137_2409)" stroke-width=".612" stroke-miterlimit="10"/><path d="M2.777 64.004A2.248 2.248 0 01.53 61.757V2.777A2.248 2.248 0 012.777.53h107.011a2.248 2.248 0 012.247 2.247v58.98a2.248 2.248 0 01-2.247 2.247H2.777z" fill="url(#paint21_linear_137_2409)"/><path d="M109.788 1.06c.944 0 1.717.774 1.717 1.717v58.98c0 .943-.773 1.717-1.717 1.717H2.777a1.723 1.723 0 01-1.717-1.717V2.777c0-.943.774-1.717 1.717-1.717h107.011zm0-1.06H2.777A2.786 2.786 0 000 2.777v58.98a2.786 2.786 0 002.777 2.776h107.011a2.786 2.786 0 002.777-2.776V2.777A2.78 2.78 0 00109.788 0z" fill="url(#paint22_linear_137_2409)"/><path d="M65.127 62.299h-17.7a.12.12 0 01-.117-.118.12.12 0 01.118-.118h17.7a.12.12 0 01.117.117.12.12 0 01-.118.119z" stroke="url(#paint23_linear_137_2409)" stroke-width=".612" stroke-miterlimit="10"/><path d="M49.483 63.898v3.348" stroke="#630088" stroke-width="1.224" stroke-miterlimit="10"/><path d="M63.07 63.898v3.348" stroke="#540075" stroke-width="1.224" stroke-miterlimit="10"/><path d="M28.986 69.408l.159-.657A2.118 2.118 0 0131.2 67.13h50.077a2.1 2.1 0 012.056 1.621l.16.657H28.985z" fill="url(#paint24_linear_137_2409)"/><path d="M81.279 67.66c.752 0 1.377.519 1.547 1.219H29.654c.17-.7.795-1.22 1.547-1.22H81.28zm0-1.06H31.2a2.641 2.641 0 00-2.575 2.035l-.318 1.303h55.854l-.317-1.303a2.62 2.62 0 00-2.565-2.035z" fill="url(#paint25_linear_137_2409)"/><path d="M108.944 60.565H3.622a.564.564 0 01-.563-.57V4.24c0-.317.25-.57.563-.57h105.322c.312 0 .563.253.563.57v55.754c0 .317-.251.57-.563.57z" fill="#90C" fill-opacity=".17" style="mix-blend-mode:hard-light"/><path d="M108.944 60.565H3.622a.564.564 0 01-.563-.57V4.24c0-.317.25-.57.563-.57h105.322c.312 0 .563.253.563.57v55.754c0 .317-.251.57-.563.57z" stroke="url(#paint26_linear_137_2409)" stroke-width=".306" stroke-miterlimit="10"/><path d="M203.517 58.437V11.113a2.366 2.366 0 00-2.357-2.358h-69.946a2.366 2.366 0 00-2.358 2.358v47.324h-9.027v1.041h91.994v-1.04h-8.306z" fill="url(#paint27_linear_137_2409)"/><path d="M211.737 59.478h-91.653c-.043 0-.043.042 0 .064 3.164.786 6.457 1.168 9.77 1.168h72.091a41.69 41.69 0 009.771-1.168c.042 0 .042-.064.021-.064z" fill="url(#paint28_linear_137_2409)"/><path d="M201.154 8.755a2.366 2.366 0 012.358 2.358v47.324h-74.64V11.113a2.366 2.366 0 012.358-2.358h69.924zm0-.85h-69.946a3.218 3.218 0 00-3.207 3.208v47.324c0 .468.382.85.85.85h74.639c.468 0 .85-.382.85-.85V11.113a3.173 3.173 0 00-3.186-3.207z" fill="url(#paint29_linear_137_2409)"/><path d="M129.85 61.135a41.8 41.8 0 01-9.197-1.02.407.407 0 01-.319-.467.436.436 0 01.425-.382h90.294c.213 0 .404.17.425.382a.46.46 0 01-.318.467 41.661 41.661 0 01-9.198 1.02H129.85z" fill="#140020"/><path d="M211.053 59.69a40.572 40.572 0 01-9.091 1.02H129.85c-3.08 0-6.138-.34-9.091-1.02h90.294zm0-.849h-90.294a.866.866 0 00-.849.765.839.839 0 00.658.913c3.037.68 6.16 1.04 9.282 1.04h72.091c3.123 0 6.245-.339 9.261-1.04a.863.863 0 00.68-.828.821.821 0 00-.829-.85z" fill="url(#paint30_linear_137_2409)"/><path d="M119.851 59.903a.426.426 0 01-.425-.425v-1.04c0-.234.191-.425.425-.425h91.993c.234 0 .425.19.425.425v1.04a.426.426 0 01-.425.425h-91.993z" fill="#140020"/><path d="M211.843 58.438v1.04H119.85v-1.04h91.993zm0-.85H119.85a.852.852 0 00-.85.85v1.04c0 .468.382.85.85.85h91.993c.467 0 .85-.382.85-.85v-1.04a.853.853 0 00-.85-.85z" fill="url(#paint31_linear_137_2409)"/><path d="M201.12 55.803h-69.691a.617.617 0 01-.616-.615V12.535c0-.34.277-.616.616-.616h69.691c.34 0 .616.276.616.616v42.651c.021.34-.255.616-.616.616z" fill="#90C" fill-opacity=".17" style="mix-blend-mode:hard-light"/><path d="M201.12 55.803h-69.691a.617.617 0 01-.616-.615V12.535c0-.34.277-.616.616-.616h69.691c.34 0 .616.276.616.616v42.651c.021.34-.255.616-.616.616z" stroke="url(#paint32_linear_137_2409)" stroke-width=".306" stroke-miterlimit="10"/><defs><linearGradient id="paint0_linear_137_2409" x1="218.137" y1="61.313" x2="277.581" y2="61.313" gradientUnits="userSpaceOnUse"><stop stop-color="#210035"/><stop offset="1" stop-color="#140020"/></linearGradient><linearGradient id="paint1_linear_137_2409" x1="218.526" y1="38.441" x2="280.369" y2="38.441" gradientUnits="userSpaceOnUse"><stop stop-color="#90C"/><stop offset="1" stop-color="#200133"/></linearGradient><linearGradient id="paint2_linear_137_2409" x1="221.032" y1="38.436" x2="278.213" y2="38.436" gradientUnits="userSpaceOnUse"><stop stop-color="#90C"/><stop offset=".792" stop-color="#230037"/></linearGradient><linearGradient id="paint3_linear_137_2409" x1="269.866" y1="68.583" x2="288.346" y2="68.583" gradientUnits="userSpaceOnUse"><stop stop-color="#210035"/><stop offset="1" stop-color="#140020"/></linearGradient><linearGradient id="paint4_linear_137_2409" x1="269.384" y1="49.743" x2="289.81" y2="49.743" gradientUnits="userSpaceOnUse"><stop stop-color="#90C"/><stop offset="1" stop-color="#200133"/></linearGradient><linearGradient id="paint5_linear_137_2409" x1="278.449" y1="32.349" x2="280.621" y2="32.349" gradientUnits="userSpaceOnUse"><stop stop-color="#90C"/><stop offset=".328" stop-color="#8C1EA9"/><stop offset=".597" stop-color="#82368C"/><stop offset=".768" stop-color="#753183" stop-opacity=".844"/><stop offset=".895" stop-color="#52236B" stop-opacity=".554"/><stop offset=".969" stop-color="#290D45" stop-opacity=".165"/><stop offset="1" stop-color="#110133" stop-opacity="0"/></linearGradient><linearGradient id="paint6_linear_137_2409" x1="271.331" y1="49.739" x2="287.737" y2="49.739" gradientUnits="userSpaceOnUse"><stop stop-color="#90C"/><stop offset=".792" stop-color="#230037"/></linearGradient><linearGradient id="paint7_linear_137_2409" x1="130.285" y1="73.318" x2="153.786" y2="73.318" gradientUnits="userSpaceOnUse"><stop stop-color="#210035"/><stop offset="1" stop-color="#140020"/></linearGradient><linearGradient id="paint8_linear_137_2409" x1="129.997" y1="70.554" x2="155.333" y2="70.554" gradientUnits="userSpaceOnUse"><stop stop-color="#90C"/><stop offset="1" stop-color="#200133"/></linearGradient><linearGradient id="paint9_linear_137_2409" x1="131.575" y1="70.553" x2="153.753" y2="70.553" gradientUnits="userSpaceOnUse"><stop stop-color="#90C"/><stop offset=".792" stop-color="#230037"/></linearGradient><linearGradient id="paint10_linear_137_2409" x1="133.052" y1="70.563" x2="134.244" y2="70.563" gradientUnits="userSpaceOnUse"><stop stop-color="#90C"/><stop offset=".792" stop-color="#230037"/></linearGradient><linearGradient id="paint11_linear_137_2409" x1="147.674" y1="70.563" x2="148.866" y2="70.563" gradientUnits="userSpaceOnUse"><stop stop-color="#90C"/><stop offset=".792" stop-color="#230037"/></linearGradient><linearGradient id="paint12_linear_137_2409" x1="149.403" y1="70.563" x2="150.592" y2="70.563" gradientUnits="userSpaceOnUse"><stop stop-color="#90C"/><stop offset=".792" stop-color="#230037"/></linearGradient><linearGradient id="paint13_linear_137_2409" x1="151.116" y1="70.563" x2="152.308" y2="70.563" gradientUnits="userSpaceOnUse"><stop stop-color="#90C"/><stop offset=".792" stop-color="#230037"/></linearGradient><linearGradient id="paint14_linear_137_2409" x1="165.142" y1="73.318" x2="199.592" y2="73.318" gradientUnits="userSpaceOnUse"><stop stop-color="#210035"/><stop offset="1" stop-color="#140020"/></linearGradient><linearGradient id="paint15_linear_137_2409" x1="164.711" y1="70.554" x2="201.852" y2="70.554" gradientUnits="userSpaceOnUse"><stop stop-color="#90C"/><stop offset="1" stop-color="#200133"/></linearGradient><linearGradient id="paint16_linear_137_2409" x1="167.025" y1="70.553" x2="199.536" y2="70.553" gradientUnits="userSpaceOnUse"><stop stop-color="#90C"/><stop offset=".792" stop-color="#230037"/></linearGradient><linearGradient id="paint17_linear_137_2409" x1="169.184" y1="70.563" x2="170.932" y2="70.563" gradientUnits="userSpaceOnUse"><stop stop-color="#90C"/><stop offset=".792" stop-color="#230037"/></linearGradient><linearGradient id="paint18_linear_137_2409" x1="190.619" y1="70.563" x2="192.366" y2="70.563" gradientUnits="userSpaceOnUse"><stop stop-color="#90C"/><stop offset=".792" stop-color="#230037"/></linearGradient><linearGradient id="paint19_linear_137_2409" x1="193.158" y1="70.563" x2="194.901" y2="70.563" gradientUnits="userSpaceOnUse"><stop stop-color="#90C"/><stop offset=".792" stop-color="#230037"/></linearGradient><linearGradient id="paint20_linear_137_2409" x1="195.671" y1="70.563" x2="197.419" y2="70.563" gradientUnits="userSpaceOnUse"><stop stop-color="#90C"/><stop offset=".792" stop-color="#230037"/></linearGradient><linearGradient id="paint21_linear_137_2409" x1="-1.816" y1="64.004" x2="108.484" y2="64.004" gradientUnits="userSpaceOnUse"><stop stop-color="#210035"/><stop offset="1" stop-color="#140020"/></linearGradient><linearGradient id="paint22_linear_137_2409" x1="-.013" y1="32.277" x2="112.57" y2="32.277" gradientUnits="userSpaceOnUse"><stop stop-color="#90C"/><stop offset="1" stop-color="#200133"/></linearGradient><linearGradient id="paint23_linear_137_2409" x1="46.94" y1="62.181" x2="65.615" y2="62.181" gradientUnits="userSpaceOnUse"><stop stop-color="#90C"/><stop offset=".792" stop-color="#230037"/></linearGradient><linearGradient id="paint24_linear_137_2409" x1="27.839" y1="69.408" x2="81.757" y2="69.408" gradientUnits="userSpaceOnUse"><stop stop-color="#210035"/><stop offset="1" stop-color="#140020"/></linearGradient><linearGradient id="paint25_linear_137_2409" x1="28.302" y1="68.27" x2="84.164" y2="68.27" gradientUnits="userSpaceOnUse"><stop stop-color="#90C"/><stop offset="1" stop-color="#200133"/></linearGradient><linearGradient id="paint26_linear_137_2409" x1="2.692" y1="32.122" x2="109.876" y2="32.122" gradientUnits="userSpaceOnUse"><stop stop-color="#90C"/><stop offset=".792" stop-color="#230037"/></linearGradient><linearGradient id="paint27_linear_137_2409" x1="117.894" y1="59.478" x2="208.893" y2="59.478" gradientUnits="userSpaceOnUse"><stop stop-color="#210035"/><stop offset="1" stop-color="#140020"/></linearGradient><linearGradient id="paint28_linear_137_2409" x1="118.123" y1="60.71" x2="208.831" y2="60.71" gradientUnits="userSpaceOnUse"><stop stop-color="#210035"/><stop offset="1" stop-color="#140020"/></linearGradient><linearGradient id="paint29_linear_137_2409" x1="127.992" y1="33.605" x2="204.343" y2="33.605" gradientUnits="userSpaceOnUse"><stop stop-color="#90C"/><stop offset="1" stop-color="#200133"/></linearGradient><linearGradient id="paint30_linear_137_2409" x1="119.894" y1="60.201" x2="211.886" y2="60.201" gradientUnits="userSpaceOnUse"><stop stop-color="#90C"/><stop offset="1" stop-color="#200133"/></linearGradient><linearGradient id="paint31_linear_137_2409" x1="118.989" y1="58.958" x2="212.696" y2="58.958" gradientUnits="userSpaceOnUse"><stop stop-color="#90C"/><stop offset="1" stop-color="#200133"/></linearGradient><linearGradient id="paint32_linear_137_2409" x1="130.569" y1="33.865" x2="201.984" y2="33.865" gradientUnits="userSpaceOnUse"><stop stop-color="#90C"/><stop offset=".792" stop-color="#230037"/></linearGradient></defs></svg>