<svg width="48" height="48" viewBox="0 0 48 48" fill="none" xmlns="http://www.w3.org/2000/svg"><g clip-path="url(#clip0_137_2046)"><path d="M48 24.146c0-13.255-10.745-24-24-24s-24 10.745-24 24c0 11.979 8.777 21.908 20.25 23.708v-16.77h-6.094v-6.938h6.094v-5.288c0-6.015 3.583-9.337 9.065-9.337 2.626 0 5.372.468 5.372.468v5.907h-3.026c-2.981 0-3.911 1.85-3.911 3.748v4.502h6.656l-1.064 6.937H27.75v16.771C39.224 46.054 48 36.124 48 24.146z" fill="#fff"/></g><defs><clipPath id="clip0_137_2046"><path fill="#fff" d="M0 0h48v48H0z"/></clipPath></defs></svg>