<svg width="319" height="58" viewBox="0 0 319 58" fill="none" xmlns="http://www.w3.org/2000/svg"><path d="M8.174 21.953H6.986c-.216 0-.432-.108-.648-.216-.216-.216-.216-.432-.216-.648V7.803H1.477c-.216 0-.432-.108-.648-.216-.216-.216-.216-.432-.216-.648v-.972c0-.216.108-.432.216-.648.216-.216.432-.216.648-.216h12.205c.217 0 .432.108.649.216.216.216.216.432.216.648v.972c0 .216-.108.432-.216.648-.216.216-.432.216-.649.216H9.038V21.09c0 .216-.108.432-.216.648-.216.216-.432.216-.648.216zm19.118-1.836c0-.216-.108-.433-.216-.649-.216-.215-.432-.216-.648-.216H20.27v-4.428h5.185c.216 0 .432-.108.648-.216.216-.216.216-.432.216-.648v-.972c0-.216-.108-.432-.216-.648-.216-.216-.432-.216-.648-.216H20.27v-4.32h5.94c.217 0 .433-.109.649-.217.216-.216.216-.432.216-.648v-.972c0-.216-.108-.432-.216-.648-.216-.216-.432-.216-.648-.216H18.11c-.216 0-.432.108-.648.216-.216.216-.216.432-.216.648v15.23c0 .216.108.432.216.648.216.216.432.216.648.216h8.317c.216 0 .432-.108.648-.216.216-.216.216-.432.216-.648v-1.08zm27.218 0c0-.216-.108-.433-.216-.649-.216-.215-.432-.216-.648-.216H47.49v-4.428h5.184c.216 0 .432-.108.648-.216.216-.216.216-.432.216-.648v-.972c0-.216-.108-.432-.216-.648-.216-.216-.432-.216-.648-.216H47.49v-4.32h5.94c.216 0 .432-.109.648-.217.216-.216.216-.432.216-.648v-.972c0-.216-.108-.432-.216-.648-.216-.216-.432-.216-.648-.216h-7.993c-.216 0-.432.108-.648.216-.216.216-.216.432-.216.648v15.23c0 .216.108.432.216.648.216.216.432.216.648.216h8.317c.216 0 .432-.108.648-.216.216-.216.216-.432.216-.648v-1.08m4.645-14.474c-.108-.432-.54-.648-.972-.648h-1.08c-.216 0-.432.108-.649.324-.216.216-.324.432-.324.648 0 .108 0 .216.108.324l6.157 15.122c.216.432.54.648.972.648h.756c.54 0 .864-.216.972-.648L71.252 6.29c0-.108.108-.216.108-.324 0-.216-.108-.432-.324-.648-.216-.216-.432-.324-.648-.324h-.864c-.432 0-.756.216-.972.648l-4.537 11.881-4.752-11.88zm18.253.216c0-.216-.108-.432-.216-.648-.216-.216-.432-.216-.648-.216h-1.296c-.216 0-.432.108-.648.216-.216.216-.216.432-.216.648v15.23c0 .216.108.432.216.648.216.216.432.216.648.216h1.188c.216 0 .432-.108.648-.216.216-.216.216-.432.216-.648V5.859m3.457 15.23c0 .216.108.432.216.648.216.216.432.216.648.216h12.097c.216 0 .432-.108.648-.216.216-.216.216-.432.216-.648v-.972c0-.216-.108-.433-.216-.649-.216-.215-.432-.216-.648-.216H84.86l8.75-11.557c.432-.648.756-1.08.756-1.296v-.432c0-.216-.108-.432-.216-.648-.216-.216-.432-.216-.648-.216H82.16c-.216 0-.432.108-.648.216-.216.216-.216.432-.216.648v.972c0 .216.108.432.216.648.216.216.432.216.648.216h8.209l-8.64 11.557c-.432.649-.756 1.08-.756 1.297v.432m20.414-15.23c0-.216-.108-.432-.216-.648-.216-.216-.432-.216-.648-.216h-1.189c-.216 0-.432.108-.648.216-.216.216-.216.432-.216.648v15.23c0 .216.108.432.216.648.216.216.432.216.648.216h1.189c.216 0 .432-.108.648-.216.216-.216.216-.432.216-.648V5.859zm15.877 8.533c0 3.456-1.296 5.076-3.78 5.076-1.404 0-2.484-.432-3.133-1.404-.756-.972-1.08-2.268-1.08-3.888V5.967c0-.216-.108-.432-.216-.648-.216-.216-.432-.216-.648-.216h-1.188c-.216 0-.432.108-.648.216-.216.216-.216.432-.216.648v8.857c0 2.376.648 4.212 1.944 5.508 1.296 1.297 3.025 1.945 5.293 1.945 1.944 0 3.564-.648 4.86-1.836 1.296-1.188 1.944-3.025 1.944-5.509V5.859c0-.216-.108-.432-.216-.648-.216-.216-.432-.216-.648-.216h-1.188c-.216 0-.432.108-.648.216-.216.216-.216.432-.216.648v8.533m19.766-9.397c-.216 0-.432.108-.648.216-.216.216-.216.432-.216.648v10.91l-8.857-11.234c-.324-.432-.648-.54-1.08-.54h-.864c-.216 0-.432.108-.648.216-.216.216-.216.432-.216.648v15.23c0 .216.108.432.216.648.216.216.432.216.648.216h.972c.216 0 .432-.108.648-.216.216-.216.216-.432.216-.648v-10.91l8.857 11.234c.324.432.648.54 1.08.54h.864c.216 0 .432-.108.648-.216.216-.216.216-.432.216-.648V5.859c0-.216-.108-.432-.216-.648-.216-.216-.432-.216-.648-.216h-.972zm16.742 15.122c0-.216-.109-.433-.217-.649-.216-.215-.432-.216-.648-.216h-6.156v-4.428h5.184c.216 0 .432-.108.648-.216.216-.216.216-.432.216-.648v-.972c0-.216-.108-.432-.216-.648-.216-.216-.432-.216-.648-.216h-5.184v-4.32h5.94c.216 0 .432-.109.648-.217.216-.216.216-.432.216-.648v-.972c0-.216-.108-.432-.216-.648-.216-.216-.432-.216-.648-.216h-7.992c-.216 0-.432.108-.648.216-.216.216-.216.432-.216.648v15.23c0 .216.108.432.216.648.216.216.432.216.648.216h8.316c.216 0 .432-.108.648-.216.216-.216.217-.432.217-.648v-1.08m12.205-14.258c0-.216-.108-.432-.216-.648-.216-.216-.432-.216-.648-.216h-1.189c-.216 0-.432.108-.648.216-.216.216-.216.432-.216.648v15.23c0 .216.108.432.216.648.216.216.432.216.648.216h1.189c.216 0 .432-.108.648-.216.216-.216.216-.432.216-.648V5.859zm17.713-.864c-.216 0-.432.108-.648.216-.216.216-.216.432-.216.648v10.91l-8.857-11.234c-.324-.432-.648-.54-1.08-.54h-.864c-.216 0-.432.108-.648.216-.216.216-.216.432-.216.648v15.23c0 .216.108.432.216.648.216.216.432.216.648.216h.972c.216 0 .432-.108.648-.216.216-.216.216-.432.216-.648v-10.91l8.857 11.234c.324.432.648.54 1.08.54h.864c.216 0 .432-.108.648-.216.216-.216.216-.432.216-.648V5.859c0-.216-.108-.432-.216-.648-.216-.216-.432-.216-.648-.216h-.972zm12.097 16.958c.216 0 .432-.108.648-.216.216-.216.216-.432.216-.648V7.803h4.645c.216 0 .432-.108.648-.216.216-.216.216-.432.216-.648v-.972c0-.216-.108-.432-.216-.648-.216-.216-.432-.216-.648-.216h-12.205c-.216 0-.432.108-.648.216-.216.216-.216.432-.216.648v.972c0 .216.108.432.216.648.216.216.432.216.648.216h4.644V21.09c0 .216.108.432.216.648.216.216.432.216.648.216h1.188zm19.118-1.836c0-.216-.108-.433-.216-.649-.216-.215-.432-.216-.648-.216h-6.157v-4.428h5.185c.216 0 .432-.108.648-.216.216-.216.216-.432.216-.648v-.972c0-.216-.108-.432-.216-.648-.216-.216-.432-.216-.648-.216h-5.185v-4.32h5.941c.216 0 .432-.109.648-.217.216-.216.216-.432.216-.648v-.972c0-.216-.108-.432-.216-.648-.216-.216-.432-.216-.648-.216h-7.993c-.216 0-.432.108-.648.216-.216.216-.216.432-.216.648v15.23c0 .216.108.432.216.648.216.216.432.216.648.216h8.317c.216 0 .432-.108.648-.216.216-.216.216-.432.216-.648v-1.08m6.697-12.314h2.052c2.052 0 3.132.864 3.132 2.485 0 .756-.324 1.404-.864 1.944-.648.432-1.404.756-2.376.756h-1.944V7.803zm7.561 14.15h1.08c.216 0 .432-.108.648-.216.216-.216.216-.324.216-.648 0-.216-.108-.324-.216-.54l-4.213-5.509c.864-.324 1.62-.864 2.268-1.728.648-.756.973-1.836.973-3.132 0-3.457-2.053-5.293-6.157-5.293h-4.32c-.216 0-.433.108-.649.216-.216.216-.215.432-.215.648v15.23c0 .216.107.432.215.648.216.216.433.216.649.216h1.188c.216 0 .432-.108.648-.216.216-.216.216-.432.216-.648v-5.509h2.052l4.212 5.725c.54.648.864.756 1.405.756zm8.748-7.129l2.484-6.048 2.485 6.048h-4.969zm8.641 7.129h1.08c.324 0 .54-.108.648-.324.216-.216.216-.432.216-.648 0-.108 0-.216-.108-.324l-6.372-15.122c-.216-.432-.54-.648-.972-.648h-1.189c-.432 0-.864.216-.972.648l-6.372 15.122c0 .108-.108.216-.108.324 0 .216.108.432.216.648.216.216.432.324.648.324h.864c.54 0 .864-.216.972-.648l1.512-3.673h7.237l1.512 3.673c.324.432.648.648 1.188.648zm14.689-13.61c.216.108.324.108.541.108.324 0 .54-.108.756-.432l.54-.864c.108-.108.108-.324.108-.432 0-.324-.108-.54-.432-.756-1.513-.756-2.917-1.188-4.429-1.188-2.7 0-4.86.864-6.372 2.484-1.513 1.62-2.269 3.78-2.269 6.265 0 2.592.756 4.752 2.377 6.373 1.62 1.62 3.78 2.376 6.372 2.376 1.836 0 3.457-.432 4.969-1.404.216-.108.324-.324.324-.648a.825.825 0 00-.216-.54l-.432-.648c-.216-.325-.432-.433-.756-.433-.216 0-.324 0-.54.108-1.081.54-2.053.864-3.025.864-1.728 0-3.132-.54-4.212-1.728-1.08-1.08-1.62-2.484-1.62-4.32 0-1.836.54-3.24 1.62-4.32s2.376-1.62 3.996-1.62c.648-.109 1.62.215 2.7.755zm10.801 13.61c.216 0 .432-.108.648-.216.217-.216.217-.432.217-.648V7.803h4.644c.216 0 .432-.108.648-.216.216-.216.216-.432.216-.648v-.972c0-.216-.108-.432-.216-.648-.216-.216-.432-.216-.648-.216h-12.205c-.216 0-.432.108-.648.216-.216.216-.216.432-.216.648v.972c0 .216.108.432.216.648.216.216.432.216.648.216h4.644V21.09c0 .216.108.432.216.648.216.216.432.216.648.216h1.188zm12.422-16.094c0-.216-.108-.432-.216-.648-.216-.216-.433-.216-.649-.216h-1.188c-.216 0-.432.108-.648.216-.216.216-.216.432-.216.648v15.23c0 .216.108.432.216.648.216.216.432.216.648.216h1.188c.216 0 .433-.108.649-.216.216-.216.216-.432.216-.648V5.859zm6.048-.216c-.216-.432-.54-.648-.972-.648h-1.08c-.216 0-.432.108-.648.324-.216.216-.324.432-.324.648 0 .108 0 .216.108.324l6.156 15.122c.216.432.541.648.973.648h.756c.54 0 .864-.216.972-.648l6.048-15.122c0-.108.108-.216.108-.324 0-.216-.108-.432-.324-.648-.216-.216-.432-.324-.648-.324h-.864c-.432 0-.756.216-.972.648l-4.536 11.881-4.753-11.88zm23.762-4.86c-.216-.216-.432-.324-.648-.324-.216 0-.54.108-.756.324-.756.648-1.728.972-2.7.972-1.08 0-2.052-.324-2.808-.972-.324-.216-.54-.324-.864-.324-.216 0-.432.108-.648.324-.216.216-.216.432-.216.648 0 .216.108.432.216.648 1.296 1.404 2.7 2.16 4.32 2.16.756 0 1.512-.216 2.268-.648.756-.432 1.404-.864 1.944-1.512.108-.108.216-.324.216-.648s-.108-.54-.324-.648zm-6.912 14.041l2.484-6.048 2.484 6.048h-4.968zm8.64 7.129h1.081c.324 0 .54-.108.648-.324.216-.216.216-.432.216-.648 0-.108 0-.216-.108-.324l-6.373-15.122c-.216-.432-.54-.648-.972-.648h-1.188c-.432 0-.864.216-.972.648l-6.373 15.122c0 .108-.108.216-.108.324 0 .216.108.432.216.648.216.216.432.324.648.324h.864c.54 0 .864-.216.972-.648l1.513-3.673h7.236l1.512 3.673c.324.432.648.648 1.188.648zM5.15 56.84c0 .108 0 .324.108.432.216.216.432.324.756.324.108 0 .216 0 .324-.108a4.704 4.704 0 001.728-1.08c.432-.54.648-1.08.648-1.728 0-.756-.216-1.08-.756-1.08h-.216l-1.404.324c-.324.108-.432.216-.432.54v.54c0 .432-.108.864-.432 1.08-.216.324-.324.54-.324.756zm-3.78-6.589c0 .324.107.54.323.756 1.513 1.404 3.133 2.053 5.077 2.053 1.62 0 2.916-.433 4.104-1.405 1.08-.864 1.62-2.052 1.62-3.456a5.02 5.02 0 00-.54-2.268c-.432-.648-.864-1.188-1.404-1.512-.54-.324-1.188-.648-1.836-.972-.648-.324-1.296-.648-1.836-.864-.54-.216-1.08-.54-1.404-.972-.432-.432-.54-.864-.54-1.405 0-.54.216-.972.648-1.404.432-.324.972-.54 1.728-.54s1.512.216 2.376.648c.108.108.216.108.432.108.324 0 .648-.108.756-.432l.432-.756c.108-.108.108-.216.108-.432 0-.324-.108-.648-.432-.756-1.188-.648-2.592-1.08-4.104-1.08-1.62 0-2.916.432-3.888 1.296-.973.864-1.405 2.052-1.405 3.348 0 .972.216 1.837.756 2.593s1.189 1.296 1.945 1.62c.756.432 1.512.756 2.268 1.08a8.477 8.477 0 011.944 1.188c.54.432.756.972.756 1.512 0 .648-.216 1.08-.648 1.404-.432.324-1.08.54-1.836.54-.972 0-1.944-.432-3.132-1.404-.216-.216-.432-.216-.648-.216-.217 0-.433.108-.649.216l-.756.864c-.108.324-.216.432-.216.648zm17.82-13.609c0-.216-.108-.432-.216-.648-.216-.216-.432-.216-.648-.216h-1.188c-.216 0-.432.108-.648.216-.216.216-.216.432-.216.648v15.23c0 .215.108.432.216.648.216.216.432.215.648.215h1.188c.216 0 .432-.107.648-.215.216-.216.216-.433.216-.649V36.642zm20.738 2.484c.216.108.324.108.54.108.324 0 .54-.108.756-.432l.54-.864c.108-.108.108-.324.108-.432 0-.324-.108-.54-.432-.756-1.512-.756-2.916-1.188-4.428-1.188-2.7 0-4.86.864-6.373 2.484-1.512 1.62-2.268 3.78-2.268 6.265 0 2.592.756 4.752 2.376 6.372 1.62 1.62 3.78 2.377 6.373 2.377 1.836 0 3.456-.433 4.968-1.405.216-.108.324-.324.324-.648a.825.825 0 00-.216-.54l-.432-.648c-.216-.324-.432-.432-.756-.432-.216 0-.324 0-.54.108-1.08.54-2.052.864-3.024.864-1.728 0-3.133-.54-4.213-1.728-1.08-1.08-1.62-2.484-1.62-4.32 0-1.836.54-3.24 1.62-4.32s2.377-1.62 3.997-1.62c.648-.109 1.62.215 2.7.755zm26.354-3.348c-.216 0-.432.108-.648.216-.216.216-.216.432-.216.648v10.91l-8.857-11.234c-.324-.432-.648-.54-1.08-.54h-.864c-.216 0-.432.108-.648.216-.216.216-.216.432-.216.648v15.23c0 .215.108.432.216.648.216.216.432.215.648.215h.972c.216 0 .432-.107.648-.215.216-.216.217-.433.217-.649V40.962l8.856 11.233c.324.432.648.54 1.08.54h.864c.217 0 .433-.107.648-.215.216-.216.216-.433.216-.649V36.642c0-.216-.108-.432-.216-.648-.216-.216-.431-.216-.648-.216h-.972zm46.013 9.829l2.484-6.049 2.484 6.049h-4.968zm8.64 7.129h1.08c.325 0 .541-.108.649-.325.216-.215.216-.431.216-.648 0-.107 0-.215-.108-.323L116.4 36.318c-.216-.432-.54-.648-.972-.648h-1.188c-.432 0-.864.216-.972.648l-6.373 15.122c0 .108-.108.216-.108.324 0 .215.108.431.216.647.216.216.432.325.648.325h.864c.54 0 .864-.216.972-.648L111 48.414h7.236l1.512 3.672c.432.432.756.648 1.188.648zm11.99-8.425c0-1.728.54-3.24 1.62-4.32s2.376-1.729 4.104-1.729c1.728 0 3.024.54 4.104 1.728 1.081 1.08 1.621 2.485 1.621 4.32 0 1.729-.54 3.133-1.513 4.321-1.08 1.08-2.376 1.728-4.212 1.728-1.62 0-2.916-.54-3.996-1.728-1.188-1.296-1.728-2.7-1.728-4.32zm-.649 6.264c1.621 1.62 3.781 2.377 6.373 2.377s4.644-.864 6.373-2.485c1.728-1.62 2.484-3.78 2.484-6.264 0-2.593-.864-4.753-2.484-6.373s-3.781-2.376-6.373-2.376-4.644.864-6.373 2.484c-1.62 1.62-2.484 3.78-2.484 6.265-.108 2.7.756 4.752 2.484 6.372zm31.215-14.797c-.216 0-.432.108-.648.216-.216.216-.216.432-.216.648v10.91l-8.857-11.234c-.324-.432-.648-.54-1.08-.54h-.864c-.216 0-.432.108-.648.216-.216.216-.216.432-.216.648v15.23c0 .215.108.432.216.648.216.216.432.215.648.215h.972c.216 0 .432-.107.648-.215.217-.216.216-.433.216-.649V40.962l8.857 11.233c.324.432.648.54 1.08.54h.864c.216 0 .432-.107.648-.215.217-.216.217-.433.217-.649V36.642c0-.216-.108-.432-.217-.648-.216-.216-.432-.216-.648-.216h-.972zm17.282 15.121c0-.216-.108-.432-.216-.648-.216-.216-.432-.216-.648-.216h-6.697V36.75c0-.216-.108-.432-.216-.648-.216-.216-.432-.216-.648-.216h-1.188c-.216 0-.432.108-.648.216-.216.216-.216.432-.216.648v15.23c0 .216.108.431.216.648.216.216.432.216.648.216h8.857c.216 0 .432-.108.648-.216.216-.217.216-.432.216-.648V50.9m5.832-14.258c0-.216-.107-.432-.215-.648-.216-.216-.432-.216-.649-.216h-1.188c-.216 0-.432.108-.648.216-.216.216-.216.432-.216.648v15.23c0 .215.108.432.216.648.216.216.432.215.648.215h1.188c.217 0 .433-.107.649-.215.216-.216.215-.433.215-.649V36.642zm17.714-.864c-.216 0-.432.108-.648.216-.216.216-.216.432-.216.648v10.91l-8.857-11.234c-.324-.432-.648-.54-1.08-.54h-.864c-.216 0-.432.108-.648.216-.216.216-.216.432-.216.648v15.23c0 .215.108.432.216.648.216.216.432.215.648.215h.972c.216 0 .432-.107.648-.215.216-.216.216-.433.216-.649V40.962l8.857 11.233c.324.432.648.54 1.08.54h.864c.216 0 .432-.107.648-.215.216-.216.216-.433.216-.649V36.642c0-.216-.108-.432-.216-.648-.216-.216-.432-.216-.648-.216h-.972zm16.634 15.121c0-.216-.108-.432-.216-.648-.216-.216-.432-.216-.648-.216h-6.157v-4.428h5.184c.216 0 .433-.108.649-.216.216-.216.216-.432.216-.648v-.972c0-.216-.108-.432-.216-.648-.216-.216-.433-.216-.649-.216h-5.184v-4.213h5.941c.216 0 .432-.108.648-.216.216-.216.216-.432.216-.648v-.972c0-.216-.108-.432-.216-.648-.216-.216-.432-.216-.648-.216h-7.993c-.216 0-.432.108-.648.216-.216.216-.216.432-.216.648v15.23c0 .215.108.431.216.648.216.216.432.216.648.216h8.317c.216 0 .432-.108.648-.216.216-.216.216-.432.216-.648v-1.189M41.765 20.117c0-.216-.108-.433-.216-.649-.216-.215-.432-.216-.648-.216h-6.697V5.967c0-.216-.108-.432-.216-.648-.216-.216-.432-.216-.648-.216h-1.188c-.216 0-.432.108-.648.216-.216.216-.216.432-.216.648v15.23c0 .216.108.432.216.648.216.216.432.216.648.216h8.857c.216 0 .432-.108.648-.216.216-.216.216-.432.216-.648v-1.08m6.697 16.525c0-.216-.108-.432-.216-.648-.216-.216-.432-.216-.648-.216h-1.189c-.216 0-.431.108-.648.216-.215.216-.215.432-.215.648v15.23c0 .215.107.432.215.648.217.216.432.215.648.215h1.189c.216 0 .432-.107.648-.215.216-.216.216-.433.216-.649V36.642zM82.917 50.9c0-.216-.108-.432-.216-.648-.216-.216-.432-.216-.648-.216h-6.157v-4.428h5.185c.216 0 .432-.108.648-.216.216-.216.216-.432.216-.648v-.972c0-.216-.108-.432-.216-.648-.216-.216-.432-.216-.648-.216h-5.185v-4.213h5.94c.217 0 .433-.108.649-.216.216-.216.216-.432.216-.648v-.972c0-.216-.108-.432-.216-.648-.216-.216-.432-.216-.648-.216h-7.993c-.216 0-.432.108-.648.216-.216.216-.216.432-.216.648v15.23c0 .215.108.431.216.648.216.216.432.216.648.216h8.317c.216 0 .432-.108.648-.216.216-.216.216-.432.216-.648V50.9m11.233-4.212c.324.432.756.648 1.188.648.432 0 .864-.216 1.188-.648l4.429-6.265v11.342c0 .215.108.431.216.647.216.216.432.217.648.217h1.188c.216 0 .432-.108.648-.217.216-.215.216-.431.216-.648V36.535c0-.216-.108-.432-.216-.648-.216-.216-.432-.216-.648-.216h-1.188c-.54 0-.864.216-1.188.648l-5.077 7.345-5.4-7.345c-.325-.432-.648-.648-1.189-.648H87.67c-.216 0-.432.108-.648.216-.216.216-.216.432-.216.648v15.23c0 .215.108.431.216.647.216.216.432.217.648.217h1.189c.215 0 .431-.108.647-.217.217-.215.217-.431.217-.648v-11.34l4.536 6.264z" fill="url(#paint0_linear_137_2061)"/><defs><linearGradient id="paint0_linear_137_2061" x1="147.306" y1="82.618" x2="166.389" y2="-25.607" gradientUnits="userSpaceOnUse"><stop stop-color="#6F00AC"/><stop offset=".295" stop-color="#7600B1"/><stop offset=".71" stop-color="#8800BF"/><stop offset="1" stop-color="#90C"/></linearGradient></defs></svg>