<svg xmlns="http://www.w3.org/2000/svg" viewBox="0 0 1920 1080"><defs><linearGradient id="a" x1="399.61" y1="813.72" x2="1961.39" y2="245.28" gradientUnits="userSpaceOnUse"><stop offset="0" stop-color="#6e00aa" stop-opacity=".5"/><stop offset=".19" stop-color="#6e00aa" stop-opacity=".66"/><stop offset=".51" stop-color="#6e00aa" stop-opacity=".91"/><stop offset=".68" stop-color="#6e00aa"/></linearGradient></defs><path d="M1180.5 1044.5c-116.67 0-229.84-13.62-336.38-40.5-102.9-26-195.31-63.1-274.66-110.42S427.85 791.2 384.34 729.87C339.33 666.4 316.5 599 316.5 529.5s22.83-136.9 67.84-200.37c43.51-61.32 105.79-116.41 185.12-163.71S741.22 81 844.12 55c106.54-26.88 219.71-40.5 336.38-40.5s229.84 13.62 336.38 40.5c102.9 26 195.31 63.1 274.66 110.42s141.61 102.39 185.12 163.71c45 63.47 67.84 130.88 67.84 200.37s-22.83 136.9-67.84 200.37c-43.51 61.33-105.79 116.41-185.12 163.71s-171.76 84.47-274.66 110.42c-106.54 26.88-219.71 40.5-336.38 40.5z" fill="url(#a)"/><path d="M1180.5 15c116.62 0 229.76 13.62 336.26 40.48A1141.16 1141.16 0 011663.48 103a923.81 923.81 0 01127.8 62.88c39.07 23.29 74.54 48.92 105.42 76.18 31.16 27.51 57.93 56.91 79.55 87.39 22 31 38.91 63.51 50.24 96.51a315.06 315.06 0 010 207.14c-11.33 33-28.23 65.47-50.24 96.51-21.62 30.48-48.39 59.88-79.55 87.39-30.88 27.26-66.35 52.89-105.42 76.18a923.81 923.81 0 01-127.8 62.82 1141.16 1141.16 0 01-146.72 47.49c-106.5 26.86-219.64 40.48-336.26 40.48s-229.76-13.62-336.26-40.48A1141.16 1141.16 0 01697.52 956a923.81 923.81 0 01-127.8-62.88c-39.07-23.26-74.54-48.89-105.42-76.12-31.16-27.51-57.93-56.91-79.55-87.39-22-31-38.91-63.51-50.24-96.51a315.06 315.06 0 010-207.14c11.33-33 28.23-65.48 50.24-96.51 21.62-30.48 48.39-59.88 79.55-87.39 30.88-27.26 66.35-52.89 105.42-76.18A923.81 923.81 0 01697.52 103a1141.16 1141.16 0 01146.72-47.52C950.74 28.62 1063.88 15 1180.5 15m0-1C703.05 14 316 244.8 316 529.5S703 1045 1180.5 1045 2045 814.2 2045 529.5 1658 14 1180.5 14z"/></svg>