<svg width="134" height="154" viewBox="0 0 134 154" fill="none" xmlns="http://www.w3.org/2000/svg"><path d="M123.058 154H10.747C4.842 154 0 149.158 0 143.253V10.747C0 4.842 4.842 0 10.747 0h112.311c5.905 0 10.747 4.842 10.747 10.747v132.506c.118 5.905-4.724 10.747-10.747 10.747z" fill="url(#paint0_linear_137_696)"/><path d="M122.387 150.457H11.965c-4.606 0-8.385-3.779-8.385-8.385V76.764c42.161 19.014 84.558 19.132 127.192 0v65.308c0 4.606-3.661 8.385-8.385 8.385z" fill="#000"/><path d="M39.763 120.438v-8.073h-8.64v8.073h-3.321v-18.9h3.32v7.722h8.64v-7.722h3.295v18.9h-3.294zm7.122-9.45c0-2.772.918-5.085 2.754-6.939 1.854-1.872 4.212-2.808 7.074-2.808 2.844 0 5.193.9 7.047 2.7 1.872 1.8 2.808 4.149 2.808 7.047 0 2.682-.864 4.932-2.592 6.75l2.322 2.7h-3.861l-.783-.891c-1.44.792-3.087 1.188-4.941 1.188-2.844 0-5.193-.9-7.047-2.7-1.854-1.8-2.781-4.149-2.781-7.047zm3.51 0c0 1.89.603 3.474 1.809 4.752 1.224 1.26 2.727 1.89 4.509 1.89a6.841 6.841 0 002.835-.594l-1.593-1.863 2.16-1.944 1.674 1.971c.846-1.188 1.269-2.592 1.269-4.212 0-1.944-.612-3.537-1.836-4.779-1.206-1.242-2.71-1.863-4.51-1.863-1.817 0-3.33.621-4.535 1.863-1.188 1.242-1.782 2.835-1.782 4.779zm23.389-6.345v-3.105h15.579v3.105h-6.13v15.795h-3.32v-15.795h-6.13zm34.081-3.105l-7.56 18.954h-2.511l-7.776-18.954h3.537l5.616 14.013 5.373-14.013h3.321z" fill="#FFB700"/><path d="M62.028 49.318v-5.551h-5.905v5.55h-2.244v-12.99h2.244v5.314h5.905v-5.314h2.244v12.99h-2.244zm4.96-6.496c0-1.89.59-3.543 1.89-4.724 1.299-1.299 2.834-1.89 4.842-1.89 2.007 0 3.543.591 4.842 1.89 1.299 1.181 1.89 2.835 1.89 4.842 0 1.89-.591 3.425-1.772 4.606l1.653 1.89h-2.598l-.59-.59c-.945.59-2.126.826-3.425.826-2.008 0-3.543-.59-4.842-1.89-1.3-1.417-1.89-2.952-1.89-4.96zm2.362 0c0 1.3.472 2.362 1.3 3.307.826.827 1.889 1.3 3.07 1.3.708 0 1.299-.119 1.89-.355l-1.064-1.3 1.536-1.298 1.18 1.299c.591-.827.827-1.772.827-2.835 0-1.299-.472-2.48-1.299-3.306-.827-.827-1.89-1.3-3.07-1.3-1.3 0-2.244.473-3.07 1.3-.828.708-1.3 1.771-1.3 3.188z" fill="#000" stroke="#000" stroke-width="1.181" stroke-miterlimit="10"/><path d="M110.329 16.486h-86.33c-1.3 0-2.362.945-2.362 2.362V65.97c0 1.3.945 2.362 2.362 2.362h86.33c1.299 0 2.362-.944 2.362-2.362V18.85c0-1.418-1.063-2.363-2.362-2.363z" stroke="#000" stroke-width="3.372" stroke-miterlimit="10"/><path d="M38.394 56.522l8.149-4.134" stroke="#000" stroke-width="3.543" stroke-miterlimit="10"/><path d="M42.764 61.245l-12.4-.708 6.85-10.393 5.55 11.102z" fill="#000"/><path d="M38.394 27.588l8.149 4.015" stroke="#000" stroke-width="3.543" stroke-miterlimit="10"/><path d="M37.213 33.847l-6.85-10.275 12.4-.708-5.55 10.983z" fill="#000"/><path d="M96.06 56.522l-8.15-4.134" stroke="#000" stroke-width="3.543" stroke-miterlimit="10"/><path d="M97.25 50.144l6.732 10.393-12.282.709 5.55-11.102z" fill="#000"/><path d="M96.06 27.588l-8.15 4.015" stroke="#000" stroke-width="3.543" stroke-miterlimit="10"/><path d="M91.7 22.864l12.282.708-6.731 10.275-5.55-10.983z" fill="#000"/><path d="M29.106 141.948v-12.6h2.214v12.6h-2.214zm5.97 0v-12.6h2.232l4.302 5.886 4.104-5.886h2.088v12.6h-2.196v-9.108l-3.978 5.598h-.324l-4.014-5.544v9.054h-2.214zm14.605 0l5.328-12.636h1.944l5.328 12.636h-2.358l-1.314-3.222h-5.382l-1.314 3.222H49.68zm6.246-9.774l-1.854 4.482h3.69l-1.836-4.482zm13.04 5.058v-2.07h5.111v5.22c-.54.54-1.26.972-2.16 1.296-.888.312-1.74.468-2.556.468-2.04 0-3.648-.588-4.824-1.764-1.164-1.176-1.746-2.754-1.746-4.734 0-1.848.576-3.39 1.728-4.626 1.152-1.248 2.67-1.872 4.554-1.872 1.62 0 2.97.426 4.05 1.278l-.936 1.764c-.312-.3-.726-.534-1.242-.702a4.83 4.83 0 00-1.602-.27c-1.248 0-2.262.396-3.042 1.188-.78.78-1.17 1.86-1.17 3.24 0 1.332.39 2.406 1.17 3.222.78.804 1.812 1.206 3.096 1.206.48 0 .972-.084 1.476-.252.516-.18.894-.384 1.134-.612v-1.98h-3.042zm8.11 4.716v-12.6h2.213v12.6h-2.214zm16.734 0h-1.764l-6.93-8.73v8.73h-2.07v-12.6h1.764l6.93 8.766v-8.766h2.07v12.6zm3.492 0v-12.6h7.29v2.07h-5.076v3.132h4.536v2.07h-4.536v3.258h5.256v2.07h-7.47z" fill="#FFB700"/><defs><linearGradient id="paint0_linear_137_696" x1="18.814" y1="-6.31" x2="115.031" y2="160.342" gradientUnits="userSpaceOnUse"><stop stop-color="#FFFFC7"/><stop offset=".246" stop-color="#FFDE64"/><stop offset=".482" stop-color="#FFC31F"/><stop offset=".605" stop-color="#FFB700"/></linearGradient></defs></svg>