<svg width="134" height="154" viewBox="0 0 134 154" fill="none" xmlns="http://www.w3.org/2000/svg"><path d="M123.058 154H10.747C4.842 154 0 149.158 0 143.253V10.747C0 4.842 4.842 0 10.747 0h112.311c5.905 0 10.747 4.842 10.747 10.747v132.506c0 5.905-4.842 10.747-10.747 10.747z" fill="url(#paint0_linear_137_724)"/><path d="M122.233 150.457H11.693c-4.605 0-8.384-3.779-8.384-8.385V76.764c42.16 19.014 84.558 19.132 127.191 0v65.308c0 4.606-3.661 8.385-8.267 8.385z" fill="#000"/><path d="M23.859 120.438v-18.9h10.935v3.105H27.18v4.698h6.804v3.105H27.18v4.887h7.884v3.105H23.859zm28.652-4.32l1.269 2.484c-.594.63-1.449 1.143-2.565 1.539a10.187 10.187 0 01-3.483.594c-2.898 0-5.247-.891-7.047-2.673-1.8-1.782-2.7-4.14-2.7-7.074 0-2.826.855-5.157 2.565-6.993 1.71-1.836 4.077-2.754 7.101-2.754 2.43 0 4.347.639 5.751 1.917l-1.485 2.457c-1.278-.846-2.7-1.269-4.266-1.269-1.782 0-3.258.603-4.428 1.809-1.152 1.206-1.728 2.817-1.728 4.833 0 1.962.603 3.564 1.809 4.806 1.224 1.224 2.799 1.836 4.725 1.836 1.674 0 3.168-.504 4.482-1.512zm7.891 4.32h-3.32v-18.9c.395 0 1.412-.009 3.05-.027 1.656-.018 2.556-.027 2.7-.027 4.572 0 6.858 1.944 6.858 5.832 0 1.458-.369 2.646-1.107 3.564-.738.9-1.584 1.512-2.538 1.836l5.913 7.722h-4.023l-5.21-7.074h-2.323v7.074zm2.268-15.849c-.324 0-1.08.018-2.268.054v5.616h2.16c1.026 0 1.881-.252 2.565-.756.702-.522 1.053-1.242 1.053-2.16 0-1.836-1.17-2.754-3.51-2.754zm9.595 15.849l7.992-18.954h2.916l7.992 18.954h-3.537l-1.971-4.833h-8.073l-1.971 4.833h-3.348zm9.369-14.661l-2.781 6.723h5.535l-2.754-6.723zm28.507 14.661h-2.646L97.1 107.343v13.095h-3.104v-18.9h2.645l10.395 13.149v-13.149h3.105v18.9z" fill="#FFB700"/><path d="M100.868 44.995H58.352a2.369 2.369 0 00-2.362 2.362v28.816c0 .59.354.945.945.945h45.35c.59 0 .944-.354.944-.945V47.357a2.368 2.368 0 00-2.361-2.362z" stroke="#000" stroke-width="3.543" stroke-miterlimit="10"/><path d="M57.65 77.59c-2.008 0-4.134-.236-6.024-.708-.236-.118-.354-.236-.354-.59 0-.237.236-.473.472-.473h55.625c.236 0 .472.236.472.472a.65.65 0 01-.354.591 26.224 26.224 0 01-6.023.709H57.649zm-9.22-48.302l29.17 29.17" stroke="#000" stroke-width="3.543" stroke-miterlimit="10"/><path d="M45.361 34.957l-3.189-11.928L54.1 26.218l-8.739 8.739zm26.569 26.69l12.046 3.189-3.307-11.928-8.74 8.74z" fill="#000"/><path d="M110.081 13.109h-86.33c-1.299 0-2.362.945-2.362 2.362v47.121c0 1.3.945 2.362 2.362 2.362H56.11V47.357a2.369 2.369 0 012.362-2.362h42.515a2.369 2.369 0 012.362 2.362v17.597h6.85c1.299 0 2.362-.945 2.362-2.362V15.471c-.118-1.417-1.181-2.362-2.48-2.362z" stroke="#000" stroke-width="3.372" stroke-miterlimit="10"/><path d="M24.22 141.948v-12.6h2.233l4.302 5.886 4.104-5.886h2.088v12.6H34.75v-9.108l-3.978 5.598h-.324l-4.014-5.544v9.054H24.22zm26.413-12.6v7.38c0 1.812-.474 3.168-1.422 4.068-.948.9-2.142 1.35-3.582 1.35-1.62 0-2.922-.474-3.906-1.422-.972-.96-1.458-2.334-1.458-4.122v-7.254h2.214v6.786c0 1.224.258 2.19.774 2.898.528.696 1.32 1.044 2.376 1.044 1.872 0 2.808-1.266 2.808-3.798v-6.93h2.196zm3.33 12.6v-12.6h2.214v10.53h5.67v2.07h-7.884zm6.38-10.53v-2.07h10.385v2.07h-4.086v10.53h-2.214v-10.53h-4.086zm12.575 10.53v-12.6h2.214v12.6h-2.214zm8.185 0h-2.214v-12.6c.216 0 .786-.006 1.71-.018.936-.012 1.56-.018 1.872-.018.888 0 1.656.114 2.304.342.66.216 1.17.522 1.53.918.36.384.624.81.792 1.278.168.456.252.96.252 1.512 0 1.14-.408 2.106-1.224 2.898-.816.792-1.944 1.188-3.384 1.188-.732 0-1.278-.018-1.638-.054v4.554zm1.584-10.566c-.264 0-.792.012-1.584.036v3.87c.576.06 1.098.09 1.566.09.696 0 1.26-.168 1.692-.504.432-.348.648-.858.648-1.53 0-1.308-.774-1.962-2.322-1.962zm7.223 10.566v-12.6h2.214v10.53h5.67v2.07H89.91zm20.032-12.6v7.38c0 1.812-.474 3.168-1.422 4.068-.948.9-2.142 1.35-3.582 1.35-1.62 0-2.922-.474-3.906-1.422-.972-.96-1.458-2.334-1.458-4.122v-7.254h2.214v6.786c0 1.224.258 2.19.774 2.898.528.696 1.32 1.044 2.376 1.044 1.872 0 2.808-1.266 2.808-3.798v-6.93h2.196z" fill="#FFB700"/><defs><linearGradient id="paint0_linear_137_724" x1="18.712" y1="-6.31" x2="114.929" y2="160.342" gradientUnits="userSpaceOnUse"><stop stop-color="#FFFFC7"/><stop offset=".246" stop-color="#FFDE64"/><stop offset=".482" stop-color="#FFC31F"/><stop offset=".605" stop-color="#FFB700"/></linearGradient></defs></svg>