<svg width="134" height="154" viewBox="0 0 134 154" fill="none" xmlns="http://www.w3.org/2000/svg"><path d="M123.058 154H10.747C4.842 154 0 149.158 0 143.253V10.747C0 4.842 4.842 0 10.747 0h112.311c5.905 0 10.747 4.842 10.747 10.747v132.506c0 5.905-4.842 10.747-10.747 10.747z" fill="url(#paint0_linear_137_743)"/><path d="M33.298 77.59c-2.008 0-4.134-.236-6.023-.708-.236-.118-.355-.236-.355-.59 0-.237.237-.473.473-.473h55.624c.236 0 .472.236.472.472a.65.65 0 01-.354.591 26.217 26.217 0 01-6.023.709H33.298z" stroke="#000" stroke-width="3.543" stroke-miterlimit="10"/><path d="M121.519 150.457H11.097c-4.605 0-8.385-3.779-8.385-8.385V76.764c42.161 19.014 84.559 19.132 127.192 0v65.308c0 4.606-3.779 8.385-8.385 8.385z" fill="#000"/><path d="M25.033 120.438v-18.9h3.348l6.453 8.829 6.156-8.829h3.132v18.9h-3.294v-13.662l-5.967 8.397h-.486l-6.02-8.316v13.581h-3.322zm39.619-18.9v11.07c0 2.718-.711 4.752-2.133 6.102-1.422 1.35-3.213 2.025-5.373 2.025-2.43 0-4.383-.711-5.859-2.133-1.458-1.44-2.187-3.501-2.187-6.183v-10.881h3.321v10.179c0 1.836.387 3.285 1.161 4.347.792 1.044 1.98 1.566 3.564 1.566 2.808 0 4.212-1.899 4.212-5.697v-10.395h3.294zm4.994 18.9v-18.9h3.321v15.795h8.505v3.105H69.646zm9.57-15.795v-3.105h15.578v3.105h-6.129v15.795h-3.32v-15.795h-6.13zm18.459 15.795v-18.9h10.935v3.105h-7.614v4.698h6.804v3.105h-6.804v4.887h7.884v3.105H97.675z" fill="#FFB700"/><path d="M109.24 13.109H23.382c-1.417 0-2.598.945-2.598 2.362v47.121c0 1.3 1.063 2.362 2.598 2.362h8.385V47.357a2.369 2.369 0 012.362-2.362h36.965V34.603c0-1.3.945-2.244 2.244-2.244h24.21c1.3 0 2.244.945 2.244 2.244v20.194h3.779a2.369 2.369 0 012.362 2.363v7.794h3.543c1.417 0 2.598-.945 2.598-2.362V15.471c-.354-1.417-1.535-2.362-2.834-2.362z" stroke="#000" stroke-width="3.543" stroke-miterlimit="10"/><path d="M76.527 44.995a2.37 2.37 0 012.362 2.362v21.966H93.65V57.041a2.369 2.369 0 012.362-2.362h3.779V34.485c0-1.3-.945-2.244-2.244-2.244H73.22c-1.3 0-2.244.944-2.244 2.244v10.392h5.55v.118z" stroke="#000" stroke-width="3.543" stroke-miterlimit="10"/><path d="M76.528 44.995H34.012a2.369 2.369 0 00-2.362 2.362v28.816c0 .59.355.945.945.945h45.35c.59 0 .945-.354.945-.945V47.357c-.118-1.299-1.181-2.362-2.362-2.362zm26.803 9.803h-7.44a2.369 2.369 0 00-2.362 2.362v17.95a2.369 2.369 0 002.362 2.362h7.44c1.3 0 2.362-1.063 2.362-2.361V57.16c0-1.3-1.062-2.362-2.362-2.362z" stroke="#000" stroke-width="3.543" stroke-miterlimit="10"/><path d="M13.05 141.948v-12.6h.234c.24 0 .798-.006 1.674-.018a78.97 78.97 0 011.8-.036c1.224 0 2.298.168 3.222.504.924.324 1.662.78 2.214 1.368.552.588.96 1.248 1.224 1.98.276.72.414 1.512.414 2.376 0 1.872-.63 3.42-1.89 4.644-1.248 1.212-3.024 1.818-5.328 1.818-.216 0-.72-.006-1.512-.018-.78-.012-1.38-.018-1.8-.018h-.252zm3.672-10.584c-.468 0-.954.018-1.458.054v8.46c.408.024.882.036 1.422.036 1.5 0 2.676-.396 3.528-1.188.852-.792 1.278-1.86 1.278-3.204 0-1.284-.426-2.298-1.278-3.042-.84-.744-2.004-1.116-3.492-1.116zm9.94 10.584v-12.6h2.213v12.6h-2.213zM37.69 138.6c0-.336-.108-.63-.324-.882a2.49 2.49 0 00-.81-.666 9.673 9.673 0 00-1.116-.54c-.396-.18-.798-.378-1.206-.594a8.564 8.564 0 01-1.116-.738 3.206 3.206 0 01-.828-1.062 3.538 3.538 0 01-.306-1.494c0-.984.354-1.806 1.062-2.466.72-.672 1.674-1.008 2.862-1.008 1.584 0 2.784.45 3.6 1.35l-1.188 1.656c-.648-.624-1.392-.936-2.232-.936-.54 0-.972.126-1.296.378-.312.252-.468.588-.468 1.008 0 .408.138.762.414 1.062.288.3.642.54 1.062.72.42.168.876.372 1.368.612.504.24.966.492 1.386.756.42.252.768.624 1.044 1.116.288.48.432 1.05.432 1.71 0 1.044-.402 1.902-1.206 2.574-.804.66-1.806.99-3.006.99a6.236 6.236 0 01-2.502-.522c-.792-.36-1.332-.846-1.62-1.458l1.26-1.512c.348.456.786.81 1.314 1.062.54.24 1.068.36 1.584.36.54 0 .978-.126 1.314-.378.348-.264.522-.63.522-1.098zm7.105 3.348h-2.214v-12.6c.216 0 .786-.006 1.71-.018.936-.012 1.56-.018 1.872-.018.888 0 1.656.114 2.304.342.66.216 1.17.522 1.53.918.36.384.624.81.792 1.278.168.456.252.96.252 1.512 0 1.14-.408 2.106-1.224 2.898-.816.792-1.944 1.188-3.384 1.188-.732 0-1.278-.018-1.638-.054v4.554zm1.584-10.566c-.264 0-.792.012-1.584.036v3.87c.576.06 1.098.09 1.566.09.696 0 1.26-.168 1.692-.504.432-.348.648-.858.648-1.53 0-1.308-.774-1.962-2.322-1.962zm6.041 4.266c0-1.848.612-3.39 1.836-4.626 1.236-1.248 2.808-1.872 4.716-1.872 1.896 0 3.462.6 4.698 1.8 1.248 1.2 1.872 2.766 1.872 4.698 0 1.884-.624 3.438-1.872 4.662-1.248 1.224-2.814 1.836-4.698 1.836-1.896 0-3.462-.6-4.698-1.8-1.236-1.2-1.854-2.766-1.854-4.698zm2.34 0c0 1.26.402 2.316 1.206 3.168.816.84 1.818 1.26 3.006 1.26 1.296 0 2.322-.42 3.078-1.26.768-.84 1.152-1.896 1.152-3.168 0-1.296-.408-2.358-1.224-3.186-.804-.828-1.806-1.242-3.006-1.242-1.212 0-2.22.414-3.024 1.242-.792.828-1.188 1.89-1.188 3.186zm12.08-4.23v-2.07h9.577v1.53l-6.984 9h7.164v2.07H66.48v-1.512l6.966-9.018H66.84zm12.486 10.53v-12.6h2.214v12.6h-2.214zm4.404-10.53v-2.07h10.386v2.07H90.03v10.53h-2.214v-10.53H83.73zm12.576 10.53v-12.6h2.214v12.6h-2.214zm16.068-12.6l-5.04 12.636h-1.674l-5.184-12.636h2.358l3.744 9.342 3.582-9.342h2.214zm1.715 12.6v-12.6h7.29v2.07h-5.076v3.132h4.536v2.07h-4.536v3.258h5.256v2.07h-7.47z" fill="#FFB700"/><defs><linearGradient id="paint0_linear_137_743" x1="18.751" y1="-6.31" x2="114.968" y2="160.342" gradientUnits="userSpaceOnUse"><stop stop-color="#FFFFC7"/><stop offset=".246" stop-color="#FFDE64"/><stop offset=".482" stop-color="#FFC31F"/><stop offset=".605" stop-color="#FFB700"/></linearGradient></defs></svg>