<svg width="145" height="31" viewBox="0 0 145 31" fill="none" xmlns="http://www.w3.org/2000/svg"><g clip-path="url(#clip0_137_458)" fill="#fff"><path d="M139.083 13.248l-2.668 6.92h-.089l-2.757-6.92h-2.49l4.18 9.741-2.401 5.371h2.49l6.403-15.111h-2.668zM120.23 7.423h-2.312v16.023h2.312V7.422zm-8.804 0h-5.603v16.023h2.312v-6.1h3.291c2.757.091 5.069-2.094 5.158-4.916v-.09c-.089-2.732-2.312-4.917-5.158-4.917zm.089 7.738h-3.291V9.698h3.291c1.512 0 2.668 1.184 2.668 2.731 0 1.548-1.245 2.731-2.668 2.731zm14.406-2.276c-1.778-.09-3.379.82-4.179 2.458l2.045.91c.445-.819 1.245-1.274 2.134-1.183 1.245-.09 2.313.82 2.49 2.094v.182c-.711-.455-1.6-.637-2.401-.637-2.223 0-4.535 1.274-4.535 3.641 0 2.185 1.867 3.55 3.913 3.55 1.156.092 2.312-.546 2.935-1.547h.088v1.275h2.313v-6.282c0-2.822-2.046-4.46-4.803-4.46zm-.266 8.74c-.801 0-1.868-.364-1.868-1.366 0-1.274 1.334-1.73 2.49-1.73.712 0 1.512.183 2.134.547-.177 1.456-1.333 2.549-2.756 2.549zM41.349 23.81c-4.624 0-8.36-3.733-8.448-8.467.089-4.734 3.824-8.466 8.448-8.466 2.135 0 4.18.82 5.692 2.367l-1.601 1.639a5.797 5.797 0 00-4.09-1.73c-3.291 0-6.048 2.73-6.048 6.19 0 3.46 2.668 6.19 6.047 6.19a5.195 5.195 0 004.18-1.729 5.049 5.049 0 001.245-2.913h-5.425v-2.276h7.648c.09.455.09 1.001.09 1.457.088 2.002-.623 4.005-1.957 5.462a7.668 7.668 0 01-5.78 2.276zm19.565-5.463c.089 3.005-2.135 5.463-5.07 5.645-2.934.09-5.335-2.185-5.513-5.19v-.454c-.089-3.005 2.134-5.463 5.07-5.645 2.934-.09 5.335 2.185 5.513 5.19v.454zm-2.312 0c.178-1.638-1.068-3.186-2.668-3.368-1.601-.182-3.113 1.093-3.29 2.731v.546c-.179 1.64 1.067 3.187 2.667 3.369 1.6.182 3.113-1.093 3.29-2.731v-.547zm14.14 0c0 3.005-2.402 5.372-5.247 5.372-2.846 0-5.247-2.367-5.247-5.372 0-3.004 2.4-5.37 5.247-5.37 2.845 0 5.246 2.366 5.246 5.37zm-2.313 0c.178-1.638-1.067-3.186-2.668-3.368-1.6-.182-3.112 1.093-3.29 2.731v.546c-.178 1.64 1.067 3.187 2.668 3.369 1.6.182 3.112-1.093 3.29-2.731a.593.593 0 000-.547zm13.873-5.098v9.832c0 4.006-2.312 5.645-5.069 5.645-2.045 0-3.913-1.275-4.713-3.187l2.045-.91c.445 1.092 1.512 1.912 2.668 1.912 1.779 0 2.846-1.093 2.846-3.186v-.82h-.089a3.609 3.609 0 01-2.757 1.275c-2.934 0-5.336-2.458-5.336-5.463 0-3.004 2.402-5.462 5.336-5.462 1.067 0 2.046.455 2.846 1.184h.089v-.91l2.134.09zm-2.045 5.098c.178-1.73-1.067-3.186-2.757-3.368h-.089c-1.69.091-3.023 1.548-3.023 3.277v.091a3.121 3.121 0 002.934 3.278h.09a3.027 3.027 0 002.845-3.186v-.091zm6.136-10.924v16.023h-2.312V7.422h2.312zm9.249 12.745l1.867 1.275a5.267 5.267 0 01-4.446 2.458c-2.846 0-5.158-2.276-5.247-5.19v-.273c-.267-2.73 1.779-5.189 4.447-5.462 2.312-.182 4.357 1.275 5.068 3.46l.267.637-7.114 3.004c.445 1.002 1.512 1.73 2.579 1.639 1.067-.091 2.045-.637 2.579-1.548zm-5.603-2.003l4.802-2.002c-.355-.729-1.156-1.184-1.956-1.184-1.69.091-2.935 1.548-2.846 3.186zM.089 3.417C0 3.69 0 3.963 0 4.237v22.576c0 .273 0 .546.089.82L12.45 15.16.09 3.417z"/><path d="M.084 28.634V2.415c4.269 4.37 8.537 8.83 12.806 13.11A879.2 879.2 0 01.084 28.634zm17.071-17.479c-1.067 1.093-2.045 2.185-3.112 3.277-4.269-4.37-8.538-8.83-12.806-13.2.356-.09.711 0 1.067.273a95.316 95.316 0 013.913 2.55c3.557 2.366 7.203 4.642 10.76 7.009.09 0 .178.091.178.091zm-3.023 5.462c.978 1.093 2.045 2.185 3.112 3.277 0 0-.089.091-.178.091l-14.673 9.56c-.356.272-.712.363-1.156.272l12.895-13.2zm.808-1.001c1.245-1.275 2.401-2.367 3.557-3.55 0 0 0-.092-.089-.092.09 0 .09.091.178.091 1.067.729 2.134 1.366 3.202 2.094.978.637 1.067 1.912 0 2.55-1.068.727-2.135 1.365-3.202 2.093-.089.091-.178.182-.356 0-.978-1.001-2.134-2.094-3.29-3.186z"/></g><defs><clipPath id="clip0_137_458"><path fill="#fff" transform="translate(0 .959)" d="M0 0h144.333v29.131H0z"/></clipPath></defs></svg>