<svg width="163" height="68" viewBox="0 0 163 68" fill="none" xmlns="http://www.w3.org/2000/svg"><g clip-path="url(#clip0_137_1014)" fill-rule="evenodd" clip-rule="evenodd" fill="#fff"><path d="M47.826 67.604H29.98V41.756H18.396v25.848H0V.984h18.396v24.783H29.98V.985h17.846v66.62zm81.758-20.469c7.242 0 13.112-5.956 13.112-13.306 0-7.347-5.87-13.305-13.112-13.305s-13.112 5.958-13.112 13.305c0 7.35 5.87 13.306 13.112 13.306zm-16.68-13.306c0-9.347 7.468-16.925 16.68-16.925s16.681 7.578 16.681 16.925c0 9.349-7.469 16.927-16.681 16.927s-16.68-7.578-16.68-16.927zm-23.225 0c2.064-.265 5.504-2.66 6.716-4.188-.426 1.895-.459 7.38.04 9.276-1.384-2.161-4.66-4.821-6.756-5.088zM77.687 15.911c2.621 0 4.686 2.626 4.686 5.618 0 2.992-2.065 5.62-4.686 5.62h-9.01V15.91h9.01zm-.033 24.967c2.621 0 4.686 2.627 4.686 5.618 0 2.993-2.065 5.62-4.686 5.62h-9.01V40.877h9.01zm51.919 27.055c18.358-.008 33.298-15.486 33.294-34.117C162.863 14.792 147.931.014 129.573 0c-18.337-.013-27.706 13.683-30.02 19.212.02-8.3-8.04-18.095-17.47-18.106h-30.38v66.496l28.325.005c11.42 0 19.545-10.04 19.56-18.65 2.606 5.418 11.648 18.982 29.985 18.976z"/></g><defs><clipPath id="clip0_137_1014"><path fill="#fff" d="M0 0h163v68H0z"/></clipPath></defs></svg>