<svg width="307" height="53" viewBox="0 0 307 53" fill="none" xmlns="http://www.w3.org/2000/svg"><path d="M37.815 52.731h-14.15V32.7h-9.153v20.03H0V1.06h14.484v19.283h9.154V1.06h14.15v51.67h.027zm64.858.222c14.484 0 26.317-11.97 26.317-26.543 0-14.794-11.833-26.237-26.317-26.237-14.68 0-22.103 10.584-23.889 14.906 0-6.4-6.447-14.047-13.926-14.047H40.69v51.699h22.494c9.153 0 15.6-7.758 15.6-14.573 2.037 4.211 9.237 14.795 23.889 14.795zM61.397 31.952c2.093 0 3.768 2.022 3.768 4.322 0 2.41-1.675 4.433-3.768 4.433h-7.2v-8.755h7.2zm0-19.394c2.093 0 3.768 2.022 3.768 4.322 0 2.3-1.675 4.322-3.768 4.322h-7.2v-8.644h7.2zm9.517 13.852c1.674-.11 4.41-2.022 5.442-3.158-.39 1.385-.39 5.763 0 7.148-1.144-1.69-3.767-3.685-5.442-3.99zm18.559 0c0-7.286 5.972-13.16 13.312-13.132 7.367.055 13.228 6.012 13.144 13.327-.111 7.203-5.972 12.994-13.228 12.994-7.312 0-13.228-5.874-13.228-13.188zm13.2 10.363c5.638 0 10.382-4.6 10.382-10.363 0-5.762-4.744-10.306-10.382-10.306-5.805 0-10.437 4.544-10.437 10.306 0 5.763 4.632 10.363 10.437 10.363zm101.948-17.427C204.341 6.823 195.411.2 184.471.2c-6 0-11.414 1.995-15.098 5.874C165.689 2.195 160.275.2 154.275.2c-10.94 0-19.871 6.65-20.15 19.172V48.02c0 2.632 2.149 4.738 4.772 4.738h4.522c.446 0 .809-.36.809-.804V19.43c.195-6.179 4.605-9.448 10.047-9.448s9.851 3.27 10.047 9.448v28.564c0 2.632 2.148 4.738 4.772 4.738h4.521c.446 0 .809-.36.809-.803V19.4c.196-6.178 4.605-9.448 10.047-9.448s9.852 3.27 10.047 9.448v28.565c0 2.632 2.149 4.737 4.772 4.737h4.521c.447 0 .81-.36.81-.803V19.373c.027.028 0 0 0-.027zm101.78-18.342h-7.675a6.444 6.444 0 00-5.303 2.799l-8.484 12.467a2.8 2.8 0 01-4.632 0l-8.484-12.467c-1.172-1.746-3.182-2.799-5.303-2.799h-7.674a.595.595 0 00-.503.915l15.126 22.275a4.74 4.74 0 010 5.32l-15.126 22.275c-.279.388.028.914.503.914h7.674a6.442 6.442 0 005.303-2.798l8.484-12.468a2.8 2.8 0 014.632 0l8.484 12.468c1.173 1.745 3.182 2.798 5.303 2.798h7.675a.595.595 0 00.502-.914l-15.154-22.248a4.743 4.743 0 010-5.32l15.126-22.275c.279-.387 0-.942-.474-.942zm-51.518 0h-4.521a4.809 4.809 0 00-4.689 3.74c-4.019-3.047-9.07-4.598-14.512-4.598-13.228 0-23.973 9.142-23.973 26.403 0 17.26 10.717 26.404 23.973 26.404 5.414 0 10.41-1.524 14.428-4.516a4.782 4.782 0 004.773 4.322h4.521c.446 0 .809-.36.809-.804V1.808c-.028-.443-.363-.804-.809-.804zm-23.722 42.14c-7.898 0-14.317-5.734-14.317-16.567s6.419-16.568 14.317-16.568c7.898 0 14.317 5.735 14.317 16.568 0 10.833-6.419 16.568-14.317 16.568z" fill="#fff"/><mask id="mask0_442_5429" style="mask-type:luminance" maskUnits="userSpaceOnUse" x="134" y="0" width="173" height="53"><path d="M204.621 19.346C204.341 6.823 195.411.2 184.471.2c-6 0-11.414 1.995-15.098 5.874C165.689 2.195 160.275.2 154.275.2c-10.94 0-19.871 6.65-20.15 19.172V48.02c0 2.632 2.149 4.738 4.772 4.738h4.522c.446 0 .809-.36.809-.804V19.43c.195-6.179 4.605-9.448 10.047-9.448s9.851 3.27 10.047 9.448v28.564c0 2.632 2.148 4.738 4.772 4.738h4.521c.446 0 .809-.36.809-.803V19.4c.196-6.178 4.605-9.448 10.047-9.448s9.852 3.27 10.047 9.448v28.565c0 2.632 2.149 4.737 4.772 4.737h4.521c.447 0 .81-.36.81-.803V19.373c.027.028 0 0 0-.027zm101.78-18.342h-7.675a6.444 6.444 0 00-5.303 2.799l-8.484 12.467a2.8 2.8 0 01-4.632 0l-8.484-12.467c-1.172-1.746-3.182-2.799-5.303-2.799h-7.674a.595.595 0 00-.503.915l15.126 22.275a4.74 4.74 0 010 5.32l-15.126 22.275c-.279.388.028.914.503.914h7.674a6.442 6.442 0 005.303-2.798l8.484-12.468a2.8 2.8 0 014.632 0l8.484 12.468c1.173 1.745 3.182 2.798 5.303 2.798h7.675a.595.595 0 00.502-.914l-15.154-22.248a4.743 4.743 0 010-5.32l15.126-22.275c.279-.387 0-.942-.474-.942zm-51.518 0h-4.521a4.809 4.809 0 00-4.689 3.74c-4.019-3.047-9.07-4.598-14.512-4.598-13.228 0-23.973 9.142-23.973 26.403 0 17.26 10.717 26.404 23.973 26.404 5.414 0 10.41-1.524 14.428-4.516a4.782 4.782 0 004.773 4.322h4.521c.446 0 .809-.36.809-.804V1.808c-.028-.443-.363-.804-.809-.804zm-23.722 42.14c-7.898 0-14.317-5.734-14.317-16.567s6.419-16.568 14.317-16.568c7.898 0 14.317 5.735 14.317 16.568 0 10.833-6.419 16.568-14.317 16.568z" fill="#fff"/></mask><g mask="url(#mask0_442_5429)"><path d="M175.736 56.748c17.047 0 30.866-17.862 30.866-39.896 0-22.034-13.819-39.896-30.866-39.896-17.047 0-30.866 17.862-30.866 39.896 0 22.034 13.819 39.896 30.866 39.896z" fill="#fff"/></g><mask id="mask1_442_5429" style="mask-type:luminance" maskUnits="userSpaceOnUse" x="134" y="0" width="173" height="53"><path d="M204.621 19.346C204.341 6.823 195.411.2 184.471.2c-6 0-11.414 1.995-15.098 5.874C165.689 2.195 160.275.2 154.275.2c-10.94 0-19.871 6.65-20.15 19.172V48.02c0 2.632 2.149 4.738 4.772 4.738h4.522c.446 0 .809-.36.809-.804V19.43c.195-6.179 4.605-9.448 10.047-9.448s9.851 3.27 10.047 9.448v28.564c0 2.632 2.148 4.738 4.772 4.738h4.521c.446 0 .809-.36.809-.803V19.4c.196-6.178 4.605-9.448 10.047-9.448s9.852 3.27 10.047 9.448v28.565c0 2.632 2.149 4.737 4.772 4.737h4.521c.447 0 .81-.36.81-.803V19.373c.027.028 0 0 0-.027zm101.78-18.342h-7.675a6.444 6.444 0 00-5.303 2.799l-8.484 12.467a2.8 2.8 0 01-4.632 0l-8.484-12.467c-1.172-1.746-3.182-2.799-5.303-2.799h-7.674a.595.595 0 00-.503.915l15.126 22.275a4.74 4.74 0 010 5.32l-15.126 22.275c-.279.388.028.914.503.914h7.674a6.442 6.442 0 005.303-2.798l8.484-12.468a2.8 2.8 0 014.632 0l8.484 12.468c1.173 1.745 3.182 2.798 5.303 2.798h7.675a.595.595 0 00.502-.914l-15.154-22.248a4.743 4.743 0 010-5.32l15.126-22.275c.279-.387 0-.942-.474-.942zm-51.518 0h-4.521a4.809 4.809 0 00-4.689 3.74c-4.019-3.047-9.07-4.598-14.512-4.598-13.228 0-23.973 9.142-23.973 26.403 0 17.26 10.717 26.404 23.973 26.404 5.414 0 10.41-1.524 14.428-4.516a4.782 4.782 0 004.773 4.322h4.521c.446 0 .809-.36.809-.804V1.808c-.028-.443-.363-.804-.809-.804zm-23.722 42.14c-7.898 0-14.317-5.734-14.317-16.567s6.419-16.568 14.317-16.568c7.898 0 14.317 5.735 14.317 16.568 0 10.833-6.419 16.568-14.317 16.568z" fill="#fff"/></mask><g mask="url(#mask1_442_5429)"><path d="M206.49 94.733c35.081 0 63.519-19.983 63.519-44.634 0-24.65-28.438-44.634-63.519-44.634-35.08 0-63.518 19.983-63.518 44.634 0 24.65 28.438 44.634 63.518 44.634z" fill="#fff"/></g><mask id="mask2_442_5429" style="mask-type:luminance" maskUnits="userSpaceOnUse" x="134" y="0" width="173" height="53"><path d="M204.621 19.346C204.341 6.823 195.411.2 184.471.2c-6 0-11.414 1.995-15.098 5.874C165.689 2.195 160.275.2 154.275.2c-10.94 0-19.871 6.65-20.15 19.172V48.02c0 2.632 2.149 4.738 4.772 4.738h4.522c.446 0 .809-.36.809-.804V19.43c.195-6.179 4.605-9.448 10.047-9.448s9.851 3.27 10.047 9.448v28.564c0 2.632 2.148 4.738 4.772 4.738h4.521c.446 0 .809-.36.809-.803V19.4c.196-6.178 4.605-9.448 10.047-9.448s9.852 3.27 10.047 9.448v28.565c0 2.632 2.149 4.737 4.772 4.737h4.521c.447 0 .81-.36.81-.803V19.373c.027.028 0 0 0-.027zm101.78-18.342h-7.675a6.444 6.444 0 00-5.303 2.799l-8.484 12.467a2.8 2.8 0 01-4.632 0l-8.484-12.467c-1.172-1.746-3.182-2.799-5.303-2.799h-7.674a.595.595 0 00-.503.915l15.126 22.275a4.74 4.74 0 010 5.32l-15.126 22.275c-.279.388.028.914.503.914h7.674a6.442 6.442 0 005.303-2.798l8.484-12.468a2.8 2.8 0 014.632 0l8.484 12.468c1.173 1.745 3.182 2.798 5.303 2.798h7.675a.595.595 0 00.502-.914l-15.154-22.248a4.743 4.743 0 010-5.32l15.126-22.275c.279-.387 0-.942-.474-.942zm-51.518 0h-4.521a4.809 4.809 0 00-4.689 3.74c-4.019-3.047-9.07-4.598-14.512-4.598-13.228 0-23.973 9.142-23.973 26.403 0 17.26 10.717 26.404 23.973 26.404 5.414 0 10.41-1.524 14.428-4.516a4.782 4.782 0 004.773 4.322h4.521c.446 0 .809-.36.809-.804V1.808c-.028-.443-.363-.804-.809-.804zm-23.722 42.14c-7.898 0-14.317-5.734-14.317-16.567s6.419-16.568 14.317-16.568c7.898 0 14.317 5.735 14.317 16.568 0 10.833-6.419 16.568-14.317 16.568z" fill="#fff"/></mask><g mask="url(#mask2_442_5429)"><path d="M245.478 37.465c19.081 0 34.55-15.356 34.55-34.3 0-18.943-15.469-34.3-34.55-34.3-19.082 0-34.55 15.357-34.55 34.3 0 18.944 15.468 34.3 34.55 34.3z" fill="#fff"/></g></svg>