<svg width="117" height="117" viewBox="0 0 117 117" fill="none" xmlns="http://www.w3.org/2000/svg"><circle cx="58.5" cy="58.5" r="58.5" fill="#FFB700"/><path d="M48.512 50.784v20.032c0 .64-.544 1.184-1.184 1.184h-1.536c-.64 0-1.184-.544-1.184-1.184v-8.384h-10.24v8.384c0 .64-.544 1.184-1.184 1.184h-1.568c-.64 0-1.184-.544-1.184-1.184V50.784c0-.64.544-1.184 1.184-1.184h1.568c.64 0 1.184.544 1.184 1.184v7.968h10.24v-7.968c0-.64.544-1.184 1.184-1.184h1.536c.64 0 1.184.544 1.184 1.184zm10.617 0v20.032c0 .64-.544 1.184-1.184 1.184h-1.568c-.64 0-1.184-.544-1.184-1.184V50.784c0-.64.544-1.184 1.184-1.184h1.568c.64 0 1.184.544 1.184 1.184zM73.04 72h-1.568c-.64 0-1.184-.544-1.184-1.184V53.28h-6.08c-.64 0-1.184-.544-1.184-1.184v-1.312c0-.64.544-1.184 1.184-1.184h16.096c.64 0 1.184.544 1.184 1.184v1.312c0 .64-.544 1.184-1.184 1.184h-6.08v17.536c0 .64-.544 1.184-1.184 1.184zm15.67-21.216v12.288c0 .64-.544 1.184-1.184 1.184H85.99c-.64 0-1.184-.544-1.184-1.184V50.784c0-.64.544-1.184 1.184-1.184h1.536c.64 0 1.184.544 1.184 1.184zM84.293 69.6c0-1.184 1.024-2.368 2.56-2.368 1.312 0 2.336 1.184 2.336 2.368 0 1.376-1.024 2.56-2.336 2.56-1.536 0-2.56-1.184-2.56-2.56z" fill="#6F00AC"/></svg>