<svg width="48" height="48" viewBox="0 0 48 48" fill="none" xmlns="http://www.w3.org/2000/svg"><g clip-path="url(#clip0_137_2048)"><path fill-rule="evenodd" clip-rule="evenodd" d="M24 0c13.246 0 24 10.754 24 24S37.246 48 24 48 0 37.246 0 24 10.754 0 24 0zm0 9c-4.074 0-4.585.017-6.184.09-1.597.073-2.687.327-3.642.697a7.353 7.353 0 00-2.656 1.73 7.354 7.354 0 00-1.73 2.657c-.371.955-.625 2.045-.698 3.642C9.017 19.416 9 19.925 9 24s.017 4.585.09 6.184c.073 1.597.327 2.687.697 3.642a7.355 7.355 0 001.73 2.656 7.353 7.353 0 002.657 1.73c.955.371 2.045.625 3.642.698 1.6.073 2.11.09 6.184.09s4.585-.017 6.184-.09c1.597-.073 2.687-.327 3.642-.697a7.354 7.354 0 002.656-1.73 7.354 7.354 0 001.73-2.657c.371-.955.625-2.045.698-3.642.073-1.6.09-2.11.09-6.184s-.017-4.585-.09-6.184c-.073-1.597-.327-2.687-.697-3.642a7.353 7.353 0 00-1.73-2.656 7.354 7.354 0 00-2.657-1.73c-.955-.371-2.045-.625-3.642-.698C28.584 9.017 28.075 9 24 9zm0 2.703c4.005 0 4.48.015 6.061.087 1.463.067 2.257.311 2.785.517.7.272 1.2.597 1.725 1.122.525.525.85 1.024 1.122 1.724.206.529.45 1.323.517 2.786.072 1.581.087 2.056.087 6.061s-.015 4.48-.087 6.061c-.067 1.463-.311 2.257-.517 2.785-.272.7-.597 1.2-1.122 1.725a4.645 4.645 0 01-1.724 1.122c-.529.206-1.323.45-2.786.517-1.581.072-2.055.087-6.061.087s-4.48-.015-6.061-.087c-1.463-.067-2.257-.311-2.786-.517-.7-.272-1.2-.597-1.724-1.122a4.645 4.645 0 01-1.122-1.724c-.206-.529-.45-1.323-.517-2.786-.072-1.581-.087-2.056-.087-6.061s.015-4.48.087-6.061c.067-1.463.311-2.257.517-2.786.272-.7.597-1.2 1.122-1.724a4.644 4.644 0 011.724-1.122c.529-.206 1.323-.45 2.786-.517 1.581-.072 2.056-.087 6.061-.087zm0 4.594a7.703 7.703 0 100 15.406 7.703 7.703 0 000-15.406zM24 29a5 5 0 110-10 5 5 0 010 10zm9.807-13.007a1.8 1.8 0 11-3.6 0 1.8 1.8 0 013.6 0z" fill="#fff"/></g><defs><clipPath id="clip0_137_2048"><path fill="#fff" d="M0 0h48v48H0z"/></clipPath></defs></svg>