<svg width="211" height="78" viewBox="0 0 211 78" fill="none" xmlns="http://www.w3.org/2000/svg"><path d="M50.74 70.75a23.881 23.881 0 01-9.055-1.635 18.92 18.92 0 01-6.809-4.612l6.1-6.298c3.354 3.094 6.868 4.64 10.542 4.638a5.122 5.122 0 002.785-.683 2.105 2.105 0 001.072-1.857 1.895 1.895 0 00-.219-.902 2.498 2.498 0 00-.865-.83 14.689 14.689 0 00-1.73-.926c-.731-.342-1.7-.74-2.902-1.196a35.026 35.026 0 01-3.684-1.634 12.046 12.046 0 01-2.782-1.955 7.898 7.898 0 01-1.782-2.51 8.07 8.07 0 01-.628-3.333 10.138 10.138 0 011.098-4.684 11.142 11.142 0 013.024-3.676 14.24 14.24 0 014.59-2.392 18.867 18.867 0 015.782-.865c3.027 0 5.703.455 8.029 1.366a18.415 18.415 0 015.978 3.707l-5.84 6.544a17.405 17.405 0 00-4.174-2.733 11.453 11.453 0 00-4.872-1.015c-1.14 0-2.042.237-2.707.71a2.074 2.074 0 00-1 1.73c-.011.317.073.631.242.901.235.308.529.566.865.758.554.332 1.132.62 1.73.865.745.323 1.706.713 2.882 1.17a28.925 28.925 0 013.575 1.63 13.23 13.23 0 012.807 1.974 7.988 7.988 0 011.828 2.563 8.104 8.104 0 01.66 3.367 10.706 10.706 0 01-1.07 4.8 11.105 11.105 0 01-3.003 3.747 13.894 13.894 0 01-4.612 2.416 19.2 19.2 0 01-5.855.85zm22.793-26.99h9.274l-.781 2.781a12.53 12.53 0 013.442-2.464 9.278 9.278 0 014.076-.903 9.154 9.154 0 013.658.732 8.51 8.51 0 012.978 2.122 10.064 10.064 0 012 3.416c.504 1.468.748 3.012.72 4.563a18.667 18.667 0 01-1.152 6.63 17.241 17.241 0 01-3.102 5.296 14.644 14.644 0 01-4.537 3.537 11.981 11.981 0 01-5.42 1.294c-1.983 0-3.61-.384-4.88-1.153a9.875 9.875 0 01-3.105-3.032l-3.076 11.42h-9.273l9.178-34.24zm9.568 19.328a5.477 5.477 0 002.488-.577 6.517 6.517 0 002.05-1.617 7.918 7.918 0 001.392-2.427 8.56 8.56 0 00.513-2.963c0-1.44-.408-2.576-1.223-3.408-.814-.832-1.9-1.252-3.257-1.26-.875 0-1.737.21-2.514.611-.797.41-1.51.968-2.098 1.644a7.61 7.61 0 00-1.442 2.4 8.156 8.156 0 00-.513 2.884c0 1.435.423 2.579 1.269 3.43a4.493 4.493 0 003.332 1.283h.003zm31.577 7.711c-1.85.03-3.689-.293-5.417-.954a12.292 12.292 0 01-4.076-2.595 10.863 10.863 0 01-2.563-3.88 13.27 13.27 0 01-.864-4.88 14.682 14.682 0 011.173-5.765 15.443 15.443 0 013.269-4.901 16.14 16.14 0 014.929-3.393 15.77 15.77 0 0111.591-.317 12.264 12.264 0 014.103 2.594 10.857 10.857 0 012.559 3.88c.591 1.542.884 3.181.865 4.832.006 1.99-.401 3.96-1.196 5.785a16.303 16.303 0 01-3.269 4.901 15.537 15.537 0 01-4.93 3.416 14.989 14.989 0 01-6.177 1.277h.003zm.536-7.665c.882.01 1.751-.22 2.514-.663a6.604 6.604 0 001.954-1.73 8.416 8.416 0 001.684-4.995c0-1.507-.424-2.703-1.272-3.59a4.373 4.373 0 00-3.321-1.32 4.937 4.937 0 00-2.513.663 6.575 6.575 0 00-1.952 1.73 8.359 8.359 0 00-1.683 4.944c0 1.542.421 2.753 1.268 3.64a4.382 4.382 0 003.318 1.32h.003zm22.545-19.375h9.283l-1.416 5.319a15.782 15.782 0 014.298-4.416c1.595-1.06 3.466-1.507 5.613-1.344l-2.646 9.753h-.782c-2.536 0-4.626.732-6.269 2.196-1.644 1.464-2.893 3.77-3.748 6.918l-2.148 7.957h-9.273l7.088-26.383zm25.368 26.942c-2.7 0-4.709-.553-6.028-1.66-1.318-1.107-1.977-2.636-1.977-4.587 0-.555.04-1.11.121-1.66.081-.554.205-1.153.366-1.808l2.635-9.76h-3.122l2.009-7.467h3.125l1.804-6.687h9.274l-1.807 6.687h6.148l-2 7.467h-6.152l-2.243 8.299a7.95 7.95 0 00-.245 1.608c0 1.107.7 1.66 2.099 1.66a10.77 10.77 0 003.514-.731l-2.05 7.71a16.96 16.96 0 01-5.457.929h-.014z" fill="#fff"/><path fill-rule="evenodd" clip-rule="evenodd" d="M0 32.058h9.83v-8.071h19.527c6.95 0 9.035-5.477 9.035-10.271v-2.733C38.392 4.693 36.132 0 26.789 0H0v32.058zM9.83 7.971h14.436c2.967 0 4.036 1.24 4.036 3.41v1.24c0 1.902-.888 3.407-3.191 3.407H9.833L9.83 7.97zm43.679-.001h15.379c3.102 0 4.517.53 4.517 3.367v1.072c0 2.307-.974 3.364-3.632 3.364H53.509V7.97zm-9.83 24.088h9.83v-8.325h15.45c3.06 0 4.037 1.107 4.037 4.47v3.855h9.83V26.61c0-5.267-2.436-6.553-5.36-7.083v-.09c4.515-1.063 5.49-3.589 5.49-7.892V9.527c0-5.766-2.039-9.513-9.609-9.513H43.68v32.044z" fill="#fff"/><path d="M99.956.003h-9.83v32.055h9.83V.003z" fill="#fff"/><path fill-rule="evenodd" clip-rule="evenodd" d="M107.115 32.061h9.564V9.034h.09l12.885 23.027h7.351l12.886-23.027h.086v23.027h9.565V.003h-15.1L133.33 20.634 122.214.003h-15.099V32.06zm55.92-.003h10.98l2.883-5.67h19.928l3.052 5.67h10.955L193.188.014h-12.796l-17.357 32.044zm23.733-24.621l6.365 12.044h-12.566l6.201-12.044z" fill="#fff"/></svg>