<svg width="386" height="115" viewBox="0 0 386 115" fill="none" xmlns="http://www.w3.org/2000/svg"><path fill-rule="evenodd" clip-rule="evenodd" d="M56.655 45.736c0-2.49-.83-4.358-2.283-5.603-1.453-1.453-3.943-2.075-6.848-2.075H26.356v15.357h21.168c3.113 0 5.395-.623 6.848-2.076 1.453-1.245 2.283-3.112 2.283-5.603zM98.99 87.034c-10.584-17.432-10.584-41.09 0-58.523 22.621-36.94 83.219-36.94 105.839 0 10.584 17.433 10.584 41.09 0 58.523-22.62 36.94-83.426 36.94-105.839 0zm144.024 3.735V38.058h-14.942a13.02 13.02 0 01-13.074-13.075 13.02 13.02 0 0113.074-13.074h56.24a13.02 13.02 0 0113.074 13.074 13.02 13.02 0 01-13.074 13.075H269.37v52.711a13.02 13.02 0 01-13.074 13.075c-7.471 0-13.282-6.018-13.282-13.075zm88.614 0V38.058h-14.942a13.02 13.02 0 01-13.074-13.075 13.02 13.02 0 0113.074-13.074h56.24A13.02 13.02 0 01386 24.983a13.02 13.02 0 01-13.074 13.075h-14.942v52.711a13.02 13.02 0 01-13.074 13.075c-7.471 0-13.282-6.018-13.282-13.075zm-270.615 9.547l-22.62-20.96H26.148v11.206a13.02 13.02 0 01-13.074 13.074A13.02 13.02 0 010 90.562V24.776a13.02 13.02 0 0113.074-13.074h29.054c8.301 0 15.565 1.452 21.583 4.15 6.226 2.698 10.791 6.641 14.112 11.83 3.32 5.188 4.98 11.206 4.98 18.054 0 6.641-1.452 12.452-4.565 17.433-2.283 3.527-5.189 6.64-8.924 9.13l9.339 8.717c5.188 4.98 5.603 13.281.83 18.47-4.773 5.395-13.074 5.81-18.47.83z" fill="url(#paint0_linear_316_5414)"/><path fill-rule="evenodd" clip-rule="evenodd" d="M174.117 32.247c5.811 1.66 10.169 6.226 11.829 11.829 2.075 5.396 2.075 22.205 0 27.601-1.66 5.81-6.226 10.169-11.829 11.83-5.396 2.074-39.015 2.074-44.411 0-5.811-1.661-10.169-6.227-11.829-11.83-2.075-5.396-2.075-22.205 0-27.601 1.66-5.81 6.226-10.169 11.829-11.83 1.66-.622 5.811-1.037 10.792-1.244l-2.076-5.603c-.83-2.076.208-4.358 2.283-5.189 2.075-.83 4.358.208 5.188 2.283l2.906 8.094h5.81l2.906-8.094c.83-2.075 3.113-3.113 5.188-2.283 2.075.83 3.113 3.113 2.283 5.189l-2.076 5.603c5.396.207 9.547.622 11.207 1.245z" fill="#FFB700"/><path fill-rule="evenodd" clip-rule="evenodd" d="M141.326 45.944c0-3.32 4.358-4.773 7.264-2.906L165.399 53c2.906 1.66 3.113 6.64.208 8.508L148.59 73.13c-2.906 1.868-7.471.208-7.471-3.113l.207-24.073z" fill="url(#paint1_linear_316_5414)"/><defs><linearGradient id="paint0_linear_316_5414" x1="174.787" y1="131.601" x2="200.316" y2="-17.746" gradientUnits="userSpaceOnUse"><stop stop-color="#6F00AC"/><stop offset=".295" stop-color="#7600B1"/><stop offset=".71" stop-color="#8800BF"/><stop offset="1" stop-color="#90C"/></linearGradient><linearGradient id="paint1_linear_316_5414" x1="141.916" y1="71.909" x2="157.393" y2="47.521" gradientUnits="userSpaceOnUse"><stop stop-color="#6F00AC"/><stop offset=".295" stop-color="#7600B1"/><stop offset=".71" stop-color="#8800BF"/><stop offset="1" stop-color="#90C"/></linearGradient></defs></svg>