<svg width="1688" height="642" viewBox="0 0 1688 642" fill="none" xmlns="http://www.w3.org/2000/svg"><path clip-rule="evenodd" d="M633.461 393.266c-22.317-21.195-54.187-30.563-85.021-22.859-9.2 1.525-29.194 10.544-54.312 23.784l-5.307-31.016c-1.685-11.649-12.422-19.335-24.058-17.666-11.638 1.67-19.301 12.406-17.614 24.054l8.084 44.559-26.462 15.278-34.545-29.282c-9.246-7.284-22.375-6.015-29.638 3.227-7.265 9.244-5.978 22.385 3.268 29.669l24.206 20.104c-22.134 14.042-39.943 26.848-45.862 34.052-21.144 22.305-30.457 54.189-22.714 85.06 4.759 30.07 49.03 106.75 72.692 125.906 22.318 21.195 54.188 30.564 85.022 22.86 30.036-4.719 183.134-93.111 202.239-116.763 21.145-22.306 30.457-54.189 22.714-85.061-4.759-30.07-49.03-106.749-72.692-125.906zm-172.855 93.602c-18.193-.865-34.27 17.259-25.518 32.418l62.506 110.453c8.752 15.159 33.983 10.699 42.33-5.49l47.093-97.933c8.347-16.189-5.729-38.38-23.375-38.298l-103.036-1.15z" stroke="url(#paint0_linear_468_5378)" stroke-width="2.5" stroke-linecap="round"/><path opacity=".5" clip-rule="evenodd" d="M1367.29 51.089c-15.29-14.508-37.11-20.918-58.23-15.637-6.3 1.046-20 7.224-37.2 16.294l-3.63-21.236c-1.15-7.975-8.51-13.236-16.48-12.09-7.97 1.145-13.22 8.496-12.06 16.471l5.53 30.508-18.13 10.465-23.66-20.043c-6.33-4.985-15.32-4.114-20.29 2.215-4.98 6.33-4.1 15.328 2.23 20.314l16.57 13.76c-15.16 9.619-27.36 18.39-31.41 23.323-14.49 15.276-20.87 37.108-15.57 58.244 3.25 20.588 33.56 73.082 49.76 86.194 15.28 14.508 37.11 20.917 58.23 15.637 20.57-3.236 125.44-63.784 138.53-79.982 14.48-15.276 20.87-37.107 15.57-58.244-3.25-20.587-33.56-73.081-49.76-86.194zm-118.41 64.118c-12.46-.59-23.47 11.823-17.48 22.201l42.79 75.615c5.99 10.378 23.27 7.319 28.99-3.766l32.27-67.063c5.72-11.085-3.91-26.277-16-26.218l-70.57-.769z" stroke="url(#paint1_linear_468_5378)" stroke-width="2" stroke-linecap="round"/><path clip-rule="evenodd" d="M1631.07 381.485c-11.03-10.479-26.78-15.115-42.01-11.312-4.55.752-14.42 5.206-26.83 11.746l-2.63-15.331c-.83-5.758-6.14-9.558-11.89-8.735-5.75.824-9.53 6.128-8.69 11.886l4 22.024-13.07 7.547-17.08-14.479c-4.57-3.601-11.05-2.976-14.64 1.591s-2.95 11.062 1.62 14.664l11.96 9.94c-10.93 6.937-19.73 13.263-22.65 16.822-10.44 11.021-15.04 26.778-11.21 42.038 2.36 14.862 24.25 52.768 35.94 62.241 11.03 10.479 26.78 15.115 42.01 11.312 14.84-2.327 90.46-45.989 99.89-57.676 10.45-11.02 15.04-26.777 11.21-42.037-2.35-14.862-24.24-52.769-35.93-62.241zm-85.39 46.234c-8.98-.431-16.92 8.524-12.6 16.018l30.9 54.602c4.33 7.493 16.79 5.293 20.91-2.707l23.25-48.395c4.13-8-2.83-18.97-11.55-18.933l-50.91-.585z" stroke="url(#paint2_linear_468_5378)" stroke-width="2" stroke-linecap="round"/><path opacity=".5" clip-rule="evenodd" d="M229.995-2.92c-13.489-12.815-32.748-18.485-51.377-13.834-5.558.92-17.637 6.368-32.811 14.365l-3.213-18.749c-1.021-7.042-7.51-11.69-14.54-10.683-7.032 1.007-11.66 7.495-10.638 14.536L122.31 9.65l-15.986 9.229L85.445 1.173c-5.588-4.405-13.52-3.64-17.907 1.945-4.388 5.586-3.607 13.53 1.98 17.934L84.15 33.209C70.778 41.692 60.02 49.43 56.445 53.782c-12.771 13.479-18.391 32.75-13.706 51.411 2.881 18.177 29.647 64.536 43.947 76.12 13.49 12.816 32.748 18.486 51.377 13.835 18.147-2.846 110.634-56.243 122.173-70.536 12.771-13.479 18.392-32.749 13.707-51.411-2.882-18.177-29.647-64.536-43.948-76.12zM125.572 53.625c-10.993-.527-20.704 10.425-15.412 19.59l37.79 66.777c5.291 9.165 20.535 6.474 25.575-3.31l28.435-59.187c5.04-9.783-3.47-23.2-14.132-23.154l-62.256-.716z" stroke="url(#paint3_linear_468_5378)" stroke-width="2" stroke-linecap="round"/><defs><linearGradient id="paint0_linear_468_5378" x1="337.459" y1="615.385" x2="696.105" y2="417.95" gradientUnits="userSpaceOnUse"><stop stop-color="#90C"/><stop offset=".543" stop-color="#D0635D" stop-opacity=".28"/><stop offset="1" stop-color="#FFB700" stop-opacity="0"/></linearGradient><linearGradient id="paint1_linear_468_5378" x1="1164.52" y1="203.222" x2="1395.08" y2="75.537" gradientUnits="userSpaceOnUse"><stop stop-color="#90C"/><stop offset="1" stop-color="#FFB700" stop-opacity="0"/></linearGradient><linearGradient id="paint2_linear_468_5378" x1="1484.86" y1="491.217" x2="1663" y2="400.995" gradientUnits="userSpaceOnUse"><stop stop-color="#90C"/><stop offset=".677" stop-color="#DE7C42" stop-opacity=".13"/><stop offset="1" stop-color="#FFB700" stop-opacity="0"/></linearGradient><linearGradient id="paint3_linear_468_5378" x1="51.19" y1="131.281" x2="254.523" y2="18.67" gradientUnits="userSpaceOnUse"><stop stop-color="#90C"/><stop offset="1" stop-color="#FFB700" stop-opacity="0"/></linearGradient></defs></svg>