<svg width="134" height="154" viewBox="0 0 134 154" fill="none" xmlns="http://www.w3.org/2000/svg"><path d="M123.058 154H10.747C4.842 154 0 149.158 0 143.253V10.747C0 4.842 4.842 0 10.747 0h112.311c5.905 0 10.747 4.842 10.747 10.747v132.506c0 5.905-4.842 10.747-10.747 10.747z" fill="url(#paint0_linear_137_823)"/><path d="M121.518 150.457H11.096c-4.606 0-8.385-3.779-8.385-8.385V76.764c42.161 19.014 84.558 19.132 127.192 0v65.308c0 4.606-3.779 8.385-8.385 8.385z" fill="#000"/><path d="M21.376 115.278l1.222 2.392c-.572.607-1.396 1.101-2.47 1.482a9.794 9.794 0 01-3.354.572c-2.79 0-5.053-.858-6.786-2.574-1.734-1.716-2.6-3.986-2.6-6.812 0-2.721.823-4.966 2.47-6.734 1.646-1.768 3.926-2.652 6.838-2.652 2.34 0 4.186.616 5.538 1.846l-1.43 2.366c-1.23-.814-2.6-1.222-4.108-1.222-1.716 0-3.138.581-4.264 1.742-1.11 1.162-1.664 2.713-1.664 4.654 0 1.89.58 3.432 1.742 4.628 1.178 1.179 2.695 1.768 4.55 1.768 1.612 0 3.05-.485 4.316-1.456zm1.909 4.16l7.695-18.252h2.808l7.697 18.252h-3.407l-1.898-4.654h-7.773l-1.898 4.654h-3.224zm9.021-14.118l-2.677 6.474h5.33l-2.653-6.474zm-4.81-7.747l1.3-1.534c.971 1.091 2.21 1.638 3.718 1.638 1.474 0 2.687-.547 3.64-1.639l1.118 1.56c-.468.746-1.135 1.379-2.002 1.898-.849.52-1.768.78-2.756.78-1.109 0-2.114-.268-3.016-.805-.9-.555-1.568-1.188-2.002-1.898zm31.43 3.665v10.66c0 2.618-.684 4.576-2.053 5.876-1.37 1.3-3.094 1.95-5.174 1.95-2.34 0-4.221-.684-5.642-2.054-1.404-1.386-2.107-3.371-2.107-5.954v-10.478h3.198v9.802c0 1.768.373 3.164 1.118 4.186.763 1.006 1.907 1.508 3.433 1.508 2.704 0 4.056-1.828 4.056-5.486v-10.01h3.171zm2.548 2.99v-2.99h15.002v2.99h-5.902v15.21h-3.198v-15.21h-5.902zm13.836 15.21l7.696-18.252h2.808l7.696 18.252h-3.406l-1.898-4.654h-7.774l-1.898 4.654H75.31zm9.022-14.118l-2.678 6.474h5.33l-2.652-6.474zm15.102 14.118h-3.198v-18.2c.381 0 1.36-.008 2.938-.026 1.595-.017 2.461-.026 2.6-.026 4.403 0 6.604 1.872 6.604 5.616 0 1.404-.355 2.548-1.066 3.432-.711.867-1.525 1.456-2.444 1.768l5.694 7.436h-3.874l-5.018-6.812h-2.236v6.812zm2.184-15.262a103 103 0 00-2.184.052v5.408h2.08c.988 0 1.811-.242 2.47-.728.676-.502 1.014-1.196 1.014-2.08 0-1.768-1.127-2.652-3.38-2.652zm11.731 15.262v-18.2h10.53v2.99h-7.332v4.524h6.552v2.99h-6.552v4.706h7.592v2.99h-10.79zm-103.264 22.51v-12.6H12.3v12.6h-2.214zm16.735 0h-1.764l-6.93-8.73v8.73h-2.07v-12.6h1.764l6.93 8.766v-8.766h2.07v12.6zm1.925-10.53v-2.07h10.386v2.07h-4.086v10.53h-2.214v-10.53h-4.086zm12.307 10.53v-12.6h7.29v2.07h-5.076v3.132h4.536v2.07h-4.536v3.258h5.256v2.07h-7.47zm10.353 0v-12.6h2.214v10.53h5.67v2.07h-7.884zm10.114 0v-12.6h2.214v12.6h-2.214zm11.208-4.716v-2.07h5.112v5.22c-.54.54-1.26.972-2.16 1.296-.888.312-1.74.468-2.556.468-2.04 0-3.648-.588-4.824-1.764-1.164-1.176-1.746-2.754-1.746-4.734 0-1.848.576-3.39 1.728-4.626 1.152-1.248 2.67-1.872 4.554-1.872 1.62 0 2.97.426 4.05 1.278l-.936 1.764c-.312-.3-.726-.534-1.242-.702a4.83 4.83 0 00-1.602-.27c-1.248 0-2.262.396-3.042 1.188-.78.78-1.17 1.86-1.17 3.24 0 1.332.39 2.406 1.17 3.222.78.804 1.812 1.206 3.096 1.206.48 0 .972-.084 1.476-.252.516-.18.894-.384 1.134-.612v-1.98h-3.042zm7.84 4.716v-12.6h7.29v2.07h-5.076v3.132h4.536v2.07h-4.536v3.258h5.256v2.07h-7.47zm21.118 0h-1.764l-6.93-8.73v8.73h-2.07v-12.6h1.764l6.93 8.766v-8.766h2.07v12.6zm1.926-10.53v-2.07h10.386v2.07h-4.086v10.53h-2.214v-10.53h-4.086zm9.578 10.53l5.328-12.636h1.944l5.328 12.636h-2.358l-1.314-3.222h-5.382l-1.314 3.222h-2.232zm6.246-9.774l-1.854 4.482h3.69l-1.836-4.482zm-3.33-5.364l.9-1.062c.672.756 1.53 1.134 2.574 1.134 1.02 0 1.86-.378 2.52-1.134l.774 1.08c-.324.516-.786.954-1.386 1.314-.588.36-1.224.54-1.908.54a4 4 0 01-2.088-.558c-.624-.384-1.086-.822-1.386-1.314z" fill="#FFB700"/><path d="M109.577 17H23.359C22.06 17 21 17.944 21 19.359v47.06c0 1.297.944 2.359 2.359 2.359h86.218c1.297 0 2.358-.944 2.358-2.36V19.242c0-1.297-1.061-2.241-2.358-2.241z" stroke="#000" stroke-width="3.367" stroke-miterlimit="10"/><path d="M36.275 46.403c-.826 0-1.392-.637-1.392-1.486 0-.873.59-1.486 1.415-1.486.826 0 1.392.613 1.392 1.486 0 .85-.543 1.486-1.415 1.486zm4.883 0c-.825 0-1.392-.637-1.392-1.486 0-.873.59-1.486 1.416-1.486.825 0 1.392.613 1.392 1.486 0 .85-.543 1.486-1.416 1.486zm4.884 0c-.826 0-1.392-.637-1.392-1.486 0-.873.59-1.486 1.416-1.486.825 0 1.391.613 1.391 1.486 0 .85-.542 1.486-1.415 1.486z" fill="#000"/><path d="M61.343 40.825c0-2.359.471-4.6 1.415-6.723H29.969c-.707 0-1.297.708-1.297 1.533v14.272c0 .825.59 1.533 1.297 1.533h35.266c-2.477-2.83-3.892-6.605-3.892-10.615zm41.278-6.723h-8.61c.826 2.005 1.415 4.364 1.415 6.723 0 3.656-1.179 7.077-3.066 9.79l.826.825h9.435c.708 0 1.297-.708 1.297-1.533V35.635c-.117-.825-.589-1.533-1.297-1.533zm-2.474 24.415l-7.903-7.903a17.153 17.153 0 01-4.128 4.128l7.903 7.903c1.179 1.18 2.948 1.18 4.128 0 1.179-1.18 1.179-2.949 0-4.128z" stroke="#000" stroke-width="3.367" stroke-miterlimit="10"/><path d="M78.32 57.809c9.38 0 16.984-7.604 16.984-16.984 0-9.38-7.604-16.984-16.984-16.984-9.38 0-16.984 7.604-16.984 16.984 0 9.38 7.604 16.984 16.984 16.984z" stroke="#000" stroke-width="3.367" stroke-miterlimit="10"/><defs><linearGradient id="paint0_linear_137_823" x1="18.751" y1="-6.31" x2="114.968" y2="160.342" gradientUnits="userSpaceOnUse"><stop stop-color="#FFFFC7"/><stop offset=".246" stop-color="#FFDE64"/><stop offset=".482" stop-color="#FFC31F"/><stop offset=".605" stop-color="#FFB700"/></linearGradient></defs></svg>