<svg width="84" height="84" viewBox="0 0 84 84" fill="none" xmlns="http://www.w3.org/2000/svg"><circle cx="42" cy="42" r="42" fill="#6F00AC"/><path d="M58.793 51.469c-.416-.42-.458-.693-.187-1.238 1.832-3.818.77-8.014-2.665-10.49-.438-.314-.625-.629-.625-1.174-.02-3-1.437-4.741-4.352-5.37-.541-.127-.645-.336-.645-.819.02-.902.02-1.825 0-2.727-.063-6.042-4.477-10.846-10.62-11.58-5.518-.65-10.932 3.251-12.348 8.895-.458 1.783-.312 3.608-.333 5.412 0 .483-.104.693-.645.818-2.957.63-4.352 2.413-4.373 5.476v20.853C22 62.965 24.02 65 27.435 65h30.504C60.814 65 62 63.804 62 60.951v-1.678c-.02-3.042-1.062-5.664-3.207-7.804zm-2.644-4.93a5.013 5.013 0 01-5.04 5.035 4.991 4.991 0 01-4.955-5.014c0-2.79 2.29-5.077 5.04-5.056 2.727.042 4.955 2.308 4.955 5.035zM30.309 32.21c.103-1.363-.084-2.706.187-4.07.832-4.153 4.685-7.132 8.745-6.755 4.394.42 7.663 3.902 7.725 8.245.021.902-.041 1.825.021 2.727.02.609-.187.776-.77.755-2.52-.02-5.06-.02-7.58-.02-2.457 0-4.914-.021-7.371.02-.708.021-1-.125-.958-.902zm10.015 27.776c.062 1.657 0 1.657-1.603 1.657H27.476c-1.582 0-2.124-.545-2.124-2.14V38.63c0-1.574.583-2.161 2.124-2.161h22.385c.812 0 1.52.147 1.936.923.27.483.27.776-.416.755a8.534 8.534 0 00-3.457.672c-4.414 1.867-6.31 6.985-4.227 11.37.208.42.375.713-.083 1.154-2.416 2.37-3.415 5.286-3.29 8.643zm18.324 1.217c-.021.566-.438.42-.75.44h-6.767c-2.228 0-4.435-.02-6.663.021-.625 0-.813-.147-.833-.818-.084-2.475.208-4.804 1.978-6.734.479-.524.812-.63 1.457-.252 2.707 1.553 5.497 1.553 8.204-.02.604-.357.937-.273 1.395.21 1.895 2.055 2.104 4.552 1.979 7.153z" fill="#FFB700"/></svg>