<svg width="114" height="39" viewBox="0 0 114 39" fill="none" xmlns="http://www.w3.org/2000/svg"><path d="M34.086 20.723v9.814l-7.734-5.489 7.734-4.325z" fill="#fff" fill-opacity=".65"/><path d="M18.704 20.723v9.814l7.651-5.489-7.651-4.325zm7.652-9.813l-9.98 5.572h9.98v-5.573z" fill="#fff" fill-opacity=".65"/><path d="M26.352 10.91l9.98 5.572h-9.98v-5.573z" fill="#fff" fill-opacity=".25"/><path d="M26.358 25.048l-9.897 6.987h9.897v-6.987z" fill="#fff" fill-opacity=".45"/><path d="M26.352 25.048l9.98 6.987h-9.98v-6.987z" fill="#fff" fill-opacity=".35"/><path d="M16.46 32.035h9.898v6.82l-9.897-6.82z" fill="#fff" fill-opacity=".25"/><path d="M36.332 32.035h-9.98v6.82l9.98-6.82z" fill="#fff" fill-opacity=".15"/><path d="M16.46 16.482h9.887v5.572l-9.886-5.572z" fill="#fff" fill-opacity=".45"/><path d="M36.332 16.482h-9.98v5.572l9.98-5.572z" fill="#fff" fill-opacity=".35"/><path d="M36.339 32.035V16.482l-9.98 5.572-9.898-5.572v15.553l2.245 1.58V20.724l7.652 4.324 7.735-4.324v12.89l2.245-1.58zm29.356-5.655c.831-.333 1.58-.832 2.162-1.58.665-.832.998-1.914.998-3.078 0-.749-.166-1.497-.416-2.08-.25-.665-.665-1.164-1.164-1.663a6.054 6.054 0 00-1.913-1.08c-.748-.25-1.58-.334-2.495-.334h-6.404v17.133h2.245V18.811h4.159c1.248 0 2.162.25 2.745.748.582.5.914 1.248.914 2.163 0 .998-.332 1.663-.914 2.162-.666.5-1.58.749-2.745.749h-2.745v2.162h3.327l3.16 6.82h2.496l-3.41-7.236zm5.077-9.732v2.163h5.157v14.887h2.246V18.811h5.156v-2.163H70.772zm-23.622 0h-1.914l-6.57 17.05h2.412l2.08-5.323h6.237l2.08 5.323h2.328l-6.654-17.05zm-3.244 9.731l2.328-6.071 2.33 6.071h-4.658zm-30.858.665a4.721 4.721 0 00-.998-1.497c-.416-.415-.915-.748-1.497-1.08-.582-.25-1.248-.5-1.913-.583l-3.077-.416c-.333-.083-.666-.083-.998-.25-.25-.082-.5-.249-.749-.415-.166-.166-.332-.416-.499-.666a3.102 3.102 0 01-.166-.998c0-.415.083-.831.25-1.08.166-.333.415-.583.665-.832.332-.25.748-.5 1.164-.666.5-.166.998-.166 1.497-.166.666 0 1.33.083 1.83.332.499.167.915.5 1.247.832.25.25.416.5.5.832.083.25.249.582.249.998l.083.416h2.246l-.083-.582c-.084-.666-.167-1.248-.416-1.747-.25-.499-.582-.915-.915-1.33-.5-.583-1.248-1.082-2.08-1.415a7.206 7.206 0 00-2.66-.499c-.833 0-1.581.167-2.33.416-.748.25-1.413.666-1.996 1.165a9.578 9.578 0 00-1.164 1.414c-.333.582-.5 1.247-.5 1.996 0 .665.084 1.33.334 1.83.25.498.582.997.998 1.413.415.416.915.666 1.414.915.499.25 1.08.333 1.746.416l2.994.416c.416.083.832.166 1.165.332.332.167.582.333.831.583.25.25.416.499.5.748.082.25.166.582.166.915 0 .416-.083.832-.25 1.081a2.988 2.988 0 01-.582.832 3.825 3.825 0 01-1.414.748 7.09 7.09 0 01-1.913.25c-.582 0-1.247-.083-1.746-.333-.583-.166-.998-.499-1.414-.831a2.991 2.991 0 01-.666-.998c-.166-.333-.332-.749-.332-1.165l-.084-.499H.157l.083.582c.083.666.25 1.331.499 1.913.25.582.665 1.082 1.081 1.58.582.666 1.33 1.082 2.163 1.414.831.333 1.746.5 2.744.5.998 0 1.913-.167 2.745-.416.832-.25 1.58-.749 2.162-1.331.416-.416.749-.915.998-1.414.25-.582.416-1.248.416-1.996.333-.5.25-1.081 0-1.663zm92.405 6.738h1.497l6.571-17.217h-1.747l-5.572 14.805-5.739-14.805H87.904v1.58h5.406v15.637h1.58V18.146h4.492l6.071 15.636z" fill="#fff"/><path d="M34.086 20.724v12.89l2.246-1.58V16.483l-9.98 5.572v2.994l7.734-4.324zM68.86 5.057c-1.082-.332-1.331-1.247-1.331-1.996v-.25c0-1.413.748-2.162 2.328-2.162h.749c1.248 0 1.996.5 1.996 1.83 0 .333-.166.582-.582.582-.416 0-.582-.25-.582-.582 0-.499-.333-.748-.832-.748h-.749c-.831 0-1.247.332-1.247 1.08v.25c0 .5.332.832.665.915l2.163.832c.915.333 1.413.998 1.413 2.08v.415c0 1.414-.748 2.246-2.328 2.246h-1.165c-1.247 0-1.996-.5-1.996-1.83 0-.333.167-.582.583-.582.415 0 .582.25.582.582 0 .499.332.748.831.748h1.248c.832 0 1.248-.415 1.248-1.164v-.416c0-.499-.25-.832-.583-.998l-2.412-.832zm8.058-1.996c1.247 0 1.996.749 1.996 1.913v3.909c0 .333-.166.582-.582.582h-2.246c-1.164 0-1.83-.499-1.83-1.663v-.915c0-1.165.749-1.664 1.83-1.664h1.747v-.25c0-.581-.333-.83-.832-.83h-1.58c-.333 0-.583-.167-.583-.5 0-.332.25-.499.583-.499h1.497v-.083zm.831 5.323V6.22h-1.746c-.5 0-.749.25-.749.666v.915c0 .332.25.665.749.665h1.746v-.083zm8.825-3.077c0-.749-.333-1.165-1.165-1.165h-.665V9.05c0 .333-.166.582-.582.582-.416 0-.582-.25-.582-.582V4.142h-1.83V9.05c0 .333-.166.582-.582.582-.416 0-.583-.25-.583-.582V3.643c0-.332.167-.582.583-.582h4.241c1.497 0 2.246.832 2.246 2.246v3.742c0 .333-.166.582-.582.582-.416 0-.582-.25-.582-.582V5.307h.083zM91.06 9.55c-1.164 0-1.83-.417-1.83-1.498 0-.333.167-.582.583-.582.415 0 .499.25.582.582 0 .25.25.5.748.5h.998c.583 0 .749-.334.749-.666V7.47c0-.333-.166-.416-.416-.582l-1.913-.5c-.748-.249-1.081-.748-1.081-1.496v-.333c0-1.164.665-1.663 1.83-1.663h.665c1.164 0 1.83.415 1.83 1.497 0 .332-.083.582-.582.582-.416 0-.5-.25-.583-.582 0-.25-.25-.5-.665-.5h-.665c-.582 0-.749.333-.749.666v.333c0 .25.166.415.416.582l1.913.499c.748.25 1.164.665 1.164 1.497v.416c0 1.164-.665 1.663-1.83 1.663H91.06zm5.409-2.33c0 .749.332 1.165 1.164 1.165h1.497V3.478c0-.333.166-.582.582-.582.416 0 .583.249.583.582v5.406c0 .332-.167.582-.583.582h-1.996c-1.58 0-2.245-.832-2.245-2.246V3.478c0-.333.166-.582.582-.582.416 0 .582.249.582.582V7.22h-.166zm9.312-1.913c0-.749-.333-1.165-1.164-1.165h-1.498V9.05c0 .333-.166.582-.582.582-.416 0-.582-.25-.582-.582V3.643c0-.332.166-.582.582-.582h1.996c1.497 0 2.246.832 2.246 2.246v3.742c0 .333-.166.582-.582.582-.416 0-.582-.25-.582-.582V5.307h.166zm7.572 4.823c0 1.331-.748 2.413-2.328 2.413h-1.331c-.25 0-.582-.167-.582-.5 0-.332.249-.498.582-.498h1.414c.832 0 1.247-.582 1.247-1.331v-.665h-1.497c-1.497 0-2.245-.832-2.245-2.246V5.556c0-1.413.748-2.411 2.329-2.411h1.996c.415 0 .582.249.582.582v6.404h-.167zm-2.495-6.07c-.831 0-1.164.582-1.164 1.33v1.747c0 .748.333 1.164 1.164 1.164h1.497V4.06h-1.497z" fill="#fff"/></svg>