<svg width="48" height="48" viewBox="0 0 48 48" fill="none" xmlns="http://www.w3.org/2000/svg"><path d="M24 48C10.742 48 0 37.258 0 24S10.742 0 24 0s24 10.742 24 24-10.742 24-24 24z" fill="#fff"/><path d="M34.785 34.258L26.333 22l-.968-1.387-6-8.774-.516-.742h-7.42l1.807 2.613 8.032 11.645.968 1.387 6.452 9.355.516.742h7.42l-1.84-2.581zm-4.742.935l-6.71-9.741-.968-1.388-7.774-11.29h3.355l6.29 9.13.968 1.386 8.193 11.904h-3.354z" fill="#000"/><path d="M22.398 24.065l.968 1.387-1.129 1.322-8.677 10.097h-2.162l9.871-11.484 1.13-1.322zm13.287-12.968L26.33 22l-1.129 1.29-.935-1.387 1.129-1.29 6.322-7.387 1.839-2.13h2.129z" fill="#000"/></svg>