<svg width="84" height="84" viewBox="0 0 84 84" fill="none" xmlns="http://www.w3.org/2000/svg"><circle cx="42" cy="42" r="42" fill="#6F00AC"/><path d="M35.792 53.776c-1.776 3.072-4.512 4.608-8.16 4.608-3.648 0-6.384-1.536-8.208-4.656-1.872-3.072-2.784-7.248-2.784-12.528s.912-9.456 2.736-12.576c1.776-3.072 4.512-4.608 8.16-4.608 3.648 0 6.384 1.536 8.208 4.608 1.776 3.12 2.688 7.296 2.688 12.576 0 5.328-.864 9.504-2.64 12.576zm-8.256-26.16c-4.56 0-6.816 4.512-6.816 13.584s2.304 13.584 6.912 13.584c4.752 0 6.72-4.56 6.72-13.584 0-8.976-2.064-13.584-6.816-13.584zM57.03 42.4v7.584c0 .912-.72 1.728-1.824 1.728-1.008 0-1.776-.816-1.776-1.728V42.4h-7.488c-2.016 0-2.016-3.36 0-3.36h7.488v-7.488c0-.912.672-1.68 1.776-1.68s1.824.768 1.824 1.68v7.488h7.632c2.016 0 2.016 3.36 0 3.36H57.03z" fill="#FFB700"/></svg>