<svg width="194" height="57" viewBox="0 0 194 57" fill="none" xmlns="http://www.w3.org/2000/svg"><path fill-rule="evenodd" clip-rule="evenodd" d="M28.344 22.478c0-1.246-.415-2.18-1.142-2.803-.727-.727-1.973-1.038-3.426-1.038h-10.59v7.683h10.59c1.557 0 2.7-.312 3.426-1.039.727-.622 1.142-1.557 1.142-2.803zm21.18 20.661c-5.294-8.721-5.294-20.557 0-29.278 11.318-18.481 41.635-18.481 52.951 0 5.295 8.721 5.295 20.557 0 29.278-11.316 18.481-41.737 18.481-52.95 0zm72.055 1.87V18.636h-7.475a6.514 6.514 0 01-6.541-6.541 6.514 6.514 0 016.541-6.541h28.136a6.514 6.514 0 016.541 6.54 6.514 6.514 0 01-6.541 6.542h-7.475v26.371a6.514 6.514 0 01-6.541 6.541c-3.738 0-6.645-3.01-6.645-6.54zm44.334 0V18.636h-7.476a6.514 6.514 0 01-6.541-6.541 6.514 6.514 0 016.541-6.541h28.137a6.514 6.514 0 016.541 6.54 6.514 6.514 0 01-6.541 6.542h-7.476v26.371a6.514 6.514 0 01-6.541 6.541c-3.737 0-6.644-3.01-6.644-6.54zM30.525 49.783L19.208 39.298h-6.126v5.606a6.514 6.514 0 01-6.541 6.541A6.514 6.514 0 010 44.905V11.991A6.514 6.514 0 016.541 5.45h14.535c4.154 0 7.787.727 10.798 2.076 3.115 1.35 5.4 3.323 7.06 5.918 1.662 2.596 2.492 5.607 2.492 9.033 0 3.322-.727 6.23-2.284 8.721-1.142 1.765-2.596 3.323-4.464 4.569l4.672 4.36c2.595 2.492 2.803 6.645.415 9.24-2.388 2.7-6.54 2.908-9.24.416z" fill="url(#paint0_linear_2_965)"/><path fill-rule="evenodd" clip-rule="evenodd" d="M87.107 15.73c2.907.83 5.088 3.114 5.918 5.918 1.039 2.699 1.039 11.109 0 13.808-.83 2.907-3.114 5.088-5.918 5.918-2.699 1.038-19.519 1.038-22.218 0-2.907-.83-5.088-3.114-5.918-5.918-1.038-2.7-1.038-11.11 0-13.809.83-2.907 3.115-5.087 5.918-5.918.83-.311 2.907-.519 5.399-.622l-1.038-2.804c-.416-1.038.103-2.18 1.142-2.595 1.038-.416 2.18.103 2.595 1.142l1.454 4.049h2.907l1.453-4.05c.416-1.038 1.558-1.557 2.596-1.141 1.038.415 1.557 1.557 1.142 2.595l-1.038 2.803c2.7.104 4.776.312 5.606.623z" fill="#FFB700"/><path fill-rule="evenodd" clip-rule="evenodd" d="M70.703 22.582c0-1.661 2.18-2.388 3.634-1.454l8.41 4.984c1.454.83 1.557 3.322.104 4.257l-8.514 5.814c-1.453.934-3.738.104-3.738-1.557l.104-12.044z" fill="url(#paint1_linear_2_965)"/><defs><linearGradient id="paint0_linear_2_965" x1="87.446" y1="65.436" x2="100.217" y2="-9.282" gradientUnits="userSpaceOnUse"><stop stop-color="#6F00AC"/><stop offset=".295" stop-color="#7600B1"/><stop offset=".71" stop-color="#8800BF"/><stop offset="1" stop-color="#90C"/></linearGradient><linearGradient id="paint1_linear_2_965" x1="70.998" y1="35.572" x2="78.741" y2="23.371" gradientUnits="userSpaceOnUse"><stop stop-color="#6F00AC"/><stop offset=".295" stop-color="#7600B1"/><stop offset=".71" stop-color="#8800BF"/><stop offset="1" stop-color="#90C"/></linearGradient></defs></svg>