<svg width="52" height="52" viewBox="0 0 52 52" fill="none" xmlns="http://www.w3.org/2000/svg"><circle cx="26" cy="26" r="25" fill="url(#paint0_linear_2_218)" stroke="url(#paint1_linear_2_218)" stroke-width="1.332" stroke-linecap="round" stroke-dasharray="0.22 2.22"/><path d="M13.5 16h11.622a.8.8 0 01.479.149l4.215 2.975H13.5V16zm.447 19.167h24.106c.255 0 .447-.26.447-.521v-14.99c0-.297-.192-.52-.447-.52H13.5v15.51c0 .297.192.52.447.52z" stroke="#FFB700" stroke-width="1.167" stroke-miterlimit="10"/><path d="M29.823 26.86l-5.69-3.31c-.261-.149-.633.037-.633.372v6.584c0 .334.335.52.632.372l5.691-3.31a.391.391 0 000-.707z" fill="#FFB700" stroke="#FFB700" stroke-width="1.167" stroke-miterlimit="10"/><defs><linearGradient id="paint0_linear_2_218" x1="38.113" y1="7.443" x2="12.856" y2="48.165" gradientUnits="userSpaceOnUse"><stop stop-color="#12001C"/><stop offset="1" stop-color="#1A0028"/></linearGradient><linearGradient id="paint1_linear_2_218" x1=".827" y1="26.003" x2="51.174" y2="26.003" gradientUnits="userSpaceOnUse"><stop stop-color="#FFB700"/><stop offset=".367" stop-color="#90C"/><stop offset=".597" stop-color="#82368C"/><stop offset=".768" stop-color="#753183" stop-opacity=".844"/><stop offset=".895" stop-color="#52236B" stop-opacity=".554"/><stop offset=".969" stop-color="#290D45" stop-opacity=".165"/><stop offset="1" stop-color="#110133" stop-opacity="0"/></linearGradient></defs></svg>