<svg width="52" height="52" viewBox="0 0 52 52" fill="none" xmlns="http://www.w3.org/2000/svg"><circle cx="26" cy="26" r="25" fill="url(#paint0_linear_2_223)" stroke="url(#paint1_linear_2_223)" stroke-width="1.332" stroke-linecap="round" stroke-dasharray="0.22 2.22"/><path d="M11.74 33.475a.182.182 0 01-.183-.183V17.574c0-.1.082-.183.182-.183h28.52c.1 0 .182.082.182.183v15.718c0 .1-.081.183-.182.183H11.74z" stroke="#FFB700" stroke-width=".833"/><mask id="path-3-inside-1_2_223" fill="#fff"><path d="M40.26 17.117a.46.46 0 01.457.458v15.719a.46.46 0 01-.458.457H11.74a.46.46 0 01-.457-.457v-15.72a.46.46 0 01.457-.457h28.52zm0-.282H11.74a.743.743 0 00-.74.74v15.719c0 .406.333.74.74.74h28.52c.406 0 .74-.334.74-.74v-15.72a.74.74 0 00-.74-.74z"/></mask><path d="M40.26 17.117a.46.46 0 01.457.458v15.719a.46.46 0 01-.458.457H11.74a.46.46 0 01-.457-.457v-15.72a.46.46 0 01.457-.457h28.52zm0-.282H11.74a.743.743 0 00-.74.74v15.719c0 .406.333.74.74.74h28.52c.406 0 .74-.334.74-.74v-15.72a.74.74 0 00-.74-.74z" fill="#FFB700"/><path d="M40.26 17.95a.374.374 0 01-.377-.375h1.667c0-.712-.58-1.291-1.29-1.291v1.666zm-.377-.375v15.719h1.667v-15.72h-1.666zm0 15.719c0-.21.167-.376.376-.376v1.666c.712 0 1.291-.579 1.291-1.29h-1.666zm.376-.376H11.74v1.666h28.52v-1.666zm-28.52 0c.21 0 .376.167.376.376h-1.667c0 .711.58 1.29 1.291 1.29v-1.666zm.376.376v-15.72h-1.667v15.72h1.667zm0-15.72a.374.374 0 01-.376.376v-1.666c-.711 0-1.29.579-1.29 1.29h1.666zm-.376.376h28.52v-1.666H11.74v1.666zm28.52-1.949H11.74v1.667h28.52V16zm-28.52 0c-.867 0-1.573.707-1.573 1.574h1.667a.096.096 0 01-.027.066.095.095 0 01-.067.027V16zm-1.573 1.574v15.719h1.667v-15.72h-1.667zm0 15.719c0 .867.706 1.573 1.573 1.573V33.2c.029 0 .053.013.067.027a.096.096 0 01.027.067h-1.667zm1.573 1.573h28.52V33.2H11.74v1.667zm28.52 0c.867 0 1.574-.706 1.574-1.573h-1.667a.09.09 0 01.027-.067.096.096 0 01.066-.027v1.667zm1.574-1.573v-15.72h-1.667v15.72h1.667zm0-15.72c0-.871-.709-1.573-1.574-1.573v1.667a.093.093 0 01-.093-.093h1.667z" fill="#FFB700" mask="url(#path-3-inside-1_2_223)"/><mask id="path-5-inside-2_2_223" fill="#fff"><path d="M28.357 33.519H23.64a.113.113 0 010-.226h4.717a.113.113 0 110 .226z"/></mask><path d="M28.357 32.686H23.64v1.666h4.717v-1.666zm-4.717 0a.72.72 0 01.72.72h-1.666c0 .522.424.946.946.946v-1.666zm.72.72a.72.72 0 01-.72.72V32.46a.947.947 0 00-.947.946h1.667zm-.72.72h4.717V32.46H23.64v1.666zm4.717 0a.72.72 0 01-.72-.72h1.666a.947.947 0 00-.946-.946v1.666zm-.72-.72a.72.72 0 01.72-.72v1.666a.947.947 0 00.946-.946h-1.666z" fill="#FFB700" mask="url(#path-5-inside-2_2_223)"/><path d="M24.188 33.864v.892m3.621-.892v.892" stroke="#FFB700" stroke-width="1.667" stroke-miterlimit="10"/><mask id="path-9-inside-3_2_223" fill="#fff"><path d="M18.726 35.33l.042-.175a.564.564 0 01.548-.432h13.346a.56.56 0 01.548.432l.042.176H18.726z"/></mask><path d="M18.726 35.33l-.81-.195-.25 1.029h1.06v-.833zm.042-.175l-.81-.197v.002l.81.195zm14.442 0l-.812.19.002.006.81-.196zm.042.176v.833h1.06l-.25-1.03-.81.197zm-13.716.195l.042-.175-1.62-.392-.042.176 1.62.392zm.041-.173a.269.269 0 01-.261.204V33.89c-.647 0-1.205.443-1.357 1.068l1.619.395zm-.261.204h13.346V33.89H19.316v1.667zm13.346 0a.274.274 0 01-.263-.212l1.623-.379a1.393 1.393 0 00-1.36-1.076v1.667zm-.262-.206l.043.175 1.62-.391-.043-.175-1.62.391zm.852-.854H18.726v1.667h14.526v-1.667z" fill="#FFB700" mask="url(#path-9-inside-3_2_223)"/><mask id="path-11-inside-4_2_223" fill="#fff"><path d="M32.662 34.864c.2 0 .367.139.412.325h-14.17a.424.424 0 01.412-.325h13.346zm0-.282H19.316a.704.704 0 00-.687.542l-.085.347H33.43l-.085-.347a.698.698 0 00-.683-.542z"/></mask><path d="M32.662 34.864c.2 0 .367.139.412.325h-14.17a.424.424 0 01.412-.325h13.346zm0-.282H19.316a.704.704 0 00-.687.542l-.085.347H33.43l-.085-.347a.698.698 0 00-.683-.542z" fill="#FFB700"/><path d="M33.074 35.189v.833h1.06l-.25-1.03-.81.197zm-14.17 0l-.81-.196-.25 1.03h1.06v-.834zm-.275-.065l.81.197v-.003l-.81-.194zm-.085.347l-.81-.197-.25 1.03h1.06v-.833zm14.886 0v.834h1.061l-.251-1.031-.81.197zm-.085-.347l-.812.187.003.01.81-.197zm-.683.573a.41.41 0 01-.398-.312l1.62-.392a1.257 1.257 0 00-1.222-.962v1.666zm.412-1.341h-14.17v1.666h14.17v-1.666zm-13.361 1.03a.41.41 0 01-.398.311v-1.666c-.596 0-1.089.413-1.222.962l1.62.392zm-.398.311h13.347v-1.666H19.316v1.666zm13.347-1.949H19.316v1.667h13.346v-1.667zm-13.346 0c-.714 0-1.332.489-1.497 1.182l1.62.388a.13.13 0 01-.123.097v-1.667zm-1.496 1.178l-.085.348 1.619.395.085-.347-1.62-.396zm.724 1.379h.36v-1.667h-.36v1.667zm.36 0H33.07v-1.667H18.903v1.667zm14.167 0h.359v-1.667h-.359v1.667zm1.169-1.031l-.085-.348-1.62.395.085.348 1.62-.395zm-.083-.337a1.532 1.532 0 00-1.495-1.189v1.667a.135.135 0 01-.129-.104l1.624-.374z" fill="#FFB700" mask="url(#path-11-inside-4_2_223)"/><path d="M18.2 23.494l-.76.573a.526.526 0 01-.693-.08l-.334-.4a.466.466 0 01-.107-.293.47.47 0 01.187-.374l1.72-1.306c.213-.16.44-.307.76-.307h.333c.267 0 .427.2.427.467v8.4a.501.501 0 01-.493.493h-.547a.5.5 0 01-.493-.493v-6.68zm4.383 5.213c.467.373.987.573 1.547.573.893 0 1.533-.653 1.533-1.573 0-.933-.733-1.653-1.986-1.653-.267 0-.534.013-.787.053-.04 0-.08.013-.107.013-.333 0-.546-.213-.546-.533 0-.04.013-.067.013-.107l.44-3.653c.04-.28.28-.493.56-.493h3.427a.5.5 0 01.493.493v.547a.501.501 0 01-.493.493h-2.574l-.266 1.853c.146-.026.346-.053.533-.053 1.653 0 2.933 1.133 2.933 2.973 0 2.014-1.44 3.174-3.213 3.174-.88 0-1.68-.334-2.507-1.107a.477.477 0 01-.146-.333c0-.12.04-.24.133-.347l.28-.307a.449.449 0 01.347-.16c.133 0 .266.054.386.147zM28.473 26c0-2.853.988-4.773 3.134-4.773 2.133 0 3.12 1.92 3.12 4.773 0 2.854-.96 4.774-3.093 4.774-2.147 0-3.16-1.92-3.16-4.774zm1.64 0c0 2.28.52 3.347 1.52 3.347 1.067 0 1.467-1.04 1.467-3.347 0-2.306-.426-3.333-1.493-3.333-1.053 0-1.493 1.08-1.493 3.333z" fill="#FFB700"/><defs><linearGradient id="paint0_linear_2_223" x1="38.113" y1="7.443" x2="12.856" y2="48.165" gradientUnits="userSpaceOnUse"><stop stop-color="#12001C"/><stop offset="1" stop-color="#1A0028"/></linearGradient><linearGradient id="paint1_linear_2_223" x1=".827" y1="26.003" x2="51.174" y2="26.003" gradientUnits="userSpaceOnUse"><stop stop-color="#FFB700"/><stop offset=".367" stop-color="#90C"/><stop offset=".597" stop-color="#82368C"/><stop offset=".768" stop-color="#753183" stop-opacity=".844"/><stop offset=".895" stop-color="#52236B" stop-opacity=".554"/><stop offset=".969" stop-color="#290D45" stop-opacity=".165"/><stop offset="1" stop-color="#110133" stop-opacity="0"/></linearGradient></defs></svg>