<svg width="52" height="52" viewBox="0 0 52 52" fill="none" xmlns="http://www.w3.org/2000/svg"><circle cx="26" cy="26" r="25" fill="url(#paint0_linear_2_253)" stroke="url(#paint1_linear_2_253)" stroke-width="1.332" stroke-linecap="round" stroke-dasharray="0.22 2.22"/><path fill-rule="evenodd" clip-rule="evenodd" d="M36.972 36h-21.99a2.315 2.315 0 01-2.315-2.315V17.48a2.315 2.315 0 012.315-2.315h21.99a2.315 2.315 0 012.315 2.315v16.204A2.315 2.315 0 0136.972 36zm-17.94-19.676h-4.05c-.64 0-1.158.518-1.158 1.157v1.158h5.208v-2.315zm6.366 0H20.19v2.315h5.208v-2.315zm6.366 0h-5.208v2.315h5.208v-2.315zm6.366 1.157c0-.639-.519-1.157-1.158-1.157h-4.05v2.315h5.208V17.48zm0 2.315H13.824V31.37H38.13V19.796zm0 12.732h-5.21v2.314h-1.157v-2.314h-5.208v2.314h-1.158v-2.314H20.19v2.314h-1.158v-2.314h-5.208v1.157c0 .639.519 1.157 1.158 1.157h21.99c.64 0 1.158-.518 1.158-1.157v-1.157zM24.6 28.919a.571.571 0 01-.36.136.578.578 0 01-.578-.578v-5.788c0-.319.259-.578.579-.578.123 0 .231.047.326.113l4.497 2.82a.572.572 0 01.385.539.568.568 0 01-.234.453L24.6 28.92z" fill="#FFB700"/><defs><linearGradient id="paint0_linear_2_253" x1="38.113" y1="7.443" x2="12.856" y2="48.165" gradientUnits="userSpaceOnUse"><stop stop-color="#12001C"/><stop offset="1" stop-color="#1A0028"/></linearGradient><linearGradient id="paint1_linear_2_253" x1=".827" y1="26.003" x2="51.174" y2="26.003" gradientUnits="userSpaceOnUse"><stop stop-color="#FFB700"/><stop offset=".367" stop-color="#90C"/><stop offset=".597" stop-color="#82368C"/><stop offset=".768" stop-color="#753183" stop-opacity=".844"/><stop offset=".895" stop-color="#52236B" stop-opacity=".554"/><stop offset=".969" stop-color="#290D45" stop-opacity=".165"/><stop offset="1" stop-color="#110133" stop-opacity="0"/></linearGradient></defs></svg>