<svg width="52" height="52" viewBox="0 0 52 52" fill="none" xmlns="http://www.w3.org/2000/svg"><circle cx="26" cy="26" r="25" fill="url(#paint0_linear_2_214)" stroke="url(#paint1_linear_2_214)" stroke-width="1.332" stroke-linecap="round" stroke-dasharray="0.22 2.22"/><path d="M19.32 28.28h-3.987l-.826 2.013a.578.578 0 01-.547.374h-.48a.512.512 0 01-.48-.707l3.493-8.28a.61.61 0 01.56-.373h.64a.61.61 0 01.56.373l3.494 8.28a.512.512 0 01-.48.707h-.574a.579.579 0 01-.546-.374l-.827-2.013zm-1.987-4.853l-1.373 3.32h2.733l-1.36-3.32zm6.534-2.094c.734-.013 1.707-.04 2.254-.04 3.733 0 5.24 2.147 5.24 4.614 0 2.626-1.787 4.786-5.347 4.786-.467 0-1.28-.013-2.147-.026a.5.5 0 01-.493-.494v-8.346c0-.267.213-.494.493-.494zm1.147 1.534v6.266c.453.027.827.027 1.053.027 2.254 0 3.56-1.28 3.56-3.253 0-1.88-1.306-3.08-3.533-3.08-.387 0-.707.013-1.08.04zM32.684 29l.44-.467a.447.447 0 01.333-.146c.133 0 .267.053.373.146.6.494 1.174.747 1.694.747.773 0 1.36-.387 1.36-1.093 0-1.84-4.227-1.387-4.227-4.427 0-1.4 1.093-2.573 2.907-2.573.853 0 1.52.173 2.226.573.147.08.24.253.24.427a.45.45 0 01-.066.226l-.254.44a.516.516 0 01-.68.214c-.493-.24-.933-.347-1.333-.347-.814 0-1.307.413-1.307 1.027 0 1.933 4.227 1.32 4.227 4.426 0 1.574-1.373 2.64-3.12 2.64-1.014 0-1.84-.28-2.76-1.133a.525.525 0 01-.174-.387c0-.106.04-.213.12-.293z" fill="#FFB700"/><path stroke="#FFB700" stroke-width=".833" d="M12.372 38.205l25.833-25.833"/><defs><linearGradient id="paint0_linear_2_214" x1="38.113" y1="7.443" x2="12.856" y2="48.165" gradientUnits="userSpaceOnUse"><stop stop-color="#12001C"/><stop offset="1" stop-color="#1A0028"/></linearGradient><linearGradient id="paint1_linear_2_214" x1=".827" y1="26.003" x2="51.174" y2="26.003" gradientUnits="userSpaceOnUse"><stop stop-color="#FFB700"/><stop offset=".367" stop-color="#90C"/><stop offset=".597" stop-color="#82368C"/><stop offset=".768" stop-color="#753183" stop-opacity=".844"/><stop offset=".895" stop-color="#52236B" stop-opacity=".554"/><stop offset=".969" stop-color="#290D45" stop-opacity=".165"/><stop offset="1" stop-color="#110133" stop-opacity="0"/></linearGradient></defs></svg>